<?xml version="1.0" standalone="no"?>
<!DOCTYPE svg PUBLIC "-//W3C//DTD SVG 1.1//EN" "http://www.w3.org/Graphics/SVG/1.1/DTD/svg11.dtd" >
<svg xmlns="http://www.w3.org/2000/svg">
<metadata>
This is a custom SVG webfont generated by Font Squirrel.
Designer    : Ron Carpenter
Foundry     : Monotype Typography
Foundry URL : httpwwwmonotypecomhtmlmtnamemswelcomehtml
</metadata>
<defs>
<font id="webfontUYlmb7KD" horiz-adv-x="2732" >
<font-face units-per-em="4096" ascent="3276" descent="-820" />
<missing-glyph horiz-adv-x="1044" />
<glyph unicode=" "  horiz-adv-x="1044" />
<glyph unicode="&#x09;" horiz-adv-x="1044" />
<glyph unicode="&#xa0;" horiz-adv-x="1044" />
<glyph unicode="!" horiz-adv-x="1410" d="M974 2876l98 -76q-112 -614 -286 -1986h-186q-151 1260 -250 1842q379 118 624 220zM698 640q148 0 252 -104t104 -252q0 -146 -104 -250t-252 -104q-146 0 -250 104t-104 250q0 149 103 252q104 104 251 104z" />
<glyph unicode="&#x22;" horiz-adv-x="2260" d="M1664 1442h-98l-204 768q-46 172 -46 266q0 122 88 210t214 88q142 0 217 -94t75 -202q0 -64 -52 -268zM700 1442h-98l-208 770q-40 147 -40 258q0 129 86 217q86 87 210 87q123 0 209 -83q85 -82 85 -213q0 -84 -48 -270z" />
<glyph unicode="#" d="M162 2002h630l168 782h330l-170 -782h758l166 782h332l-168 -782h360v-330h-424l-136 -654h560v-332h-624l-166 -776h-332l168 776h-764l-160 -776h-332l164 776h-360v332h428l136 654h-564v330zM1056 1672l-136 -652h760l136 652h-760z" />
<glyph unicode="$" horiz-adv-x="2048" d="M908 2994h220v-210q213 -10 377 -51q161 -40 325 -125q-102 -264 -138 -564l-182 24q-2 268 -93 381q-92 113 -305 143v-882q414 -294 508 -376q138 -124 204 -255t66 -321q0 -293 -205 -522q-205 -230 -573 -300v-334h-230v320q-379 7 -730 128q59 242 106 622h170 q31 -281 143 -405q111 -123 325 -139v1014l-322 246q-158 125 -218 198q-80 99 -122 210q-42 112 -42 226q0 146 65 287q64 138 166 234q101 95 206 143q107 49 279 80v228zM908 2572q-124 -46 -184 -130t-60 -194q0 -99 50 -184q48 -82 194 -202v710zM1100 150 q149 59 220 161q72 103 72 235q0 108 -64 211t-228 229v-836z" />
<glyph unicode="%" horiz-adv-x="3372" d="M138 2026q0 426 177 631t453 205q262 0 415 -179t153 -579q0 -403 -176 -602q-176 -198 -452 -198q-266 0 -418 170t-152 552zM534 2036q0 -385 61 -482q62 -98 143 -98q82 0 130 86q76 133 76 598q0 358 -74 480q-50 80 -130 80q-108 0 -150 -115q-43 -117 -56 -549z M2346 2862h296l-1610 -3024h-298zM2034 610q0 384 181 586t459 202q255 0 407 -179q151 -178 151 -561q0 -415 -173 -618q-172 -202 -453 -202q-266 0 -419 180t-153 592zM2434 602q0 -404 72 -532q42 -72 128 -72q88 0 126 72q76 137 76 614q0 358 -72 480q-44 72 -130 72 q-78 0 -120 -74q-80 -146 -80 -560z" />
<glyph unicode="&#x26;" horiz-adv-x="3284" d="M2094 1682v128q241 -22 448 -22q188 0 506 22v-140q-169 -23 -250 -64q-82 -42 -142 -114q-40 -48 -148 -234q-142 -249 -310 -494q165 -189 317 -274q154 -86 267 -86q75 0 150 32q72 31 186 122l108 -140q-280 -276 -486 -396q-128 -72 -250 -72q-148 0 -306 84 q-159 85 -372 298q-280 -232 -470 -307t-442 -75q-381 0 -586 196q-206 197 -206 496q0 192 96 365t257 296q162 124 507 293q-112 230 -147 351q-35 123 -35 235q0 308 213 501q212 193 589 193q273 0 407 -122q133 -121 133 -330q0 -212 -127 -384t-441 -358 q251 -465 478 -738q122 165 182 320q58 150 58 248q0 55 -32 93q-30 36 -152 77zM1472 1866q148 102 202 194q82 136 82 294q0 162 -72 249t-172 87q-89 0 -148 -68q-58 -67 -58 -212q0 -92 30 -201q30 -111 136 -343zM1052 1422q-190 -108 -268 -214q-114 -158 -114 -346 q0 -212 157 -372t355 -160q123 0 231 40q110 41 245 134q-168 203 -282 374q-80 117 -324 544z" />
<glyph unicode="'" horiz-adv-x="1150" d="M626 1444h-96l-210 764q-40 142 -40 258q0 135 85 221q85 87 209 87q126 0 211 -84t85 -216q0 -86 -46 -264z" />
<glyph unicode="(" horiz-adv-x="1364" d="M1276 2920v-198q-179 -202 -274 -382q-128 -249 -203 -611q-75 -363 -75 -769q0 -462 110 -854q88 -310 216 -520q73 -120 226 -258v-190q-323 131 -546 340q-316 294 -456 681q-140 388 -140 817q0 676 320 1194t822 750z" />
<glyph unicode=")" horiz-adv-x="1364" d="M88 -862v198q184 206 274 382q128 250 204 612q76 359 76 768q0 462 -110 854q-89 313 -218 520q-73 120 -226 258v190q322 -130 548 -340q314 -295 455 -681q141 -387 141 -817q0 -676 -321 -1194t-823 -750z" />
<glyph unicode="*" horiz-adv-x="1962" d="M746 2918h484l-174 -726l636 392l146 -462l-732 -56l552 -480l-388 -280l-288 688l-284 -688l-394 280l564 480l-734 70l154 448l632 -392z" />
<glyph unicode="+" d="M260 1526h918v922h370v-922h922v-370h-922v-914h-370v914h-918v370z" />
<glyph unicode="," horiz-adv-x="1410" d="M388 86l-86 106l120 150q130 161 242 318q188 -54 299 -198t111 -330q0 -230 -154 -504q-155 -275 -472 -558l-146 146q223 296 296 444q48 100 48 214q0 104 -55 165t-125 61q-27 0 -78 -14z" />
<glyph unicode="-" horiz-adv-x="1450" d="M158 702l-50 56q82 218 124 414q205 -14 436 -14q361 0 616 14l46 -60q-76 -194 -130 -410q-308 12 -662 12q-224 0 -380 -12z" />
<glyph unicode="." horiz-adv-x="1410" d="M706 650q150 0 255 -106t105 -254q0 -150 -106 -255t-254 -105q-150 0 -255 105t-105 255q0 148 105 254t255 106z" />
<glyph unicode="/" horiz-adv-x="2306" d="M1684 2852h396l-1460 -2926h-396z" />
<glyph unicode="0" horiz-adv-x="2088" d="M118 1460q0 344 103 692q104 351 332 530q229 180 535 180q396 0 616 -276q268 -337 268 -1088q0 -872 -306 -1274q-224 -294 -644 -294q-285 0 -472 128q-186 127 -309 437q-123 309 -123 965zM726 1452q0 -556 24 -792q32 -316 117 -420q86 -104 191 -104 q164 0 228 196q80 255 80 1098q0 854 -124 1086q-74 138 -206 138q-72 0 -128 -45q-57 -46 -94 -137q-51 -123 -64 -282q-24 -272 -24 -738z" />
<glyph unicode="1" horiz-adv-x="2088" d="M368 2380v132q389 127 563 195q171 67 357 155l104 -68q-25 -253 -39 -596q-13 -329 -13 -772q0 -860 8 -1070q6 -109 44 -147q37 -37 254 -73l88 -18v-140q-370 22 -660 22q-301 0 -666 -22v140q283 44 332 84q33 25 44 100q24 186 24 994q0 682 -4 846q-4 183 -39 227 q-34 43 -107 43q-93 0 -290 -32z" />
<glyph unicode="2" horiz-adv-x="2088" d="M404 2008h-198q108 330 114 604q183 127 366 188q186 62 368 62q341 0 553 -205q213 -205 213 -499q0 -222 -93 -436t-321 -486q-93 -113 -750 -770h700q162 0 218 17q52 16 100 67q46 50 120 204h192q-193 -464 -294 -776q-491 22 -852 22q-385 0 -800 -22v174 q288 276 668 738q226 275 347 469q115 184 165 338q50 155 50 303q0 211 -113 332q-113 120 -277 120q-149 0 -267 -95q-117 -95 -209 -349z" />
<glyph unicode="3" horiz-adv-x="2088" d="M456 2140h-190q58 178 114 504q164 110 331 164t339 54q318 0 489 -159t171 -409q0 -172 -82 -311t-298 -301q254 -71 392 -260q140 -191 140 -456q0 -352 -246 -642q-336 -394 -928 -394q-275 0 -562 100q41 169 57 271q17 105 39 353h176q37 -269 158 -387 q120 -117 296 -117q188 0 318 157t130 457q0 343 -190 506q-137 117 -428 122l6 172q271 74 395 219q125 146 125 329q0 155 -95 253q-94 97 -241 97q-138 0 -243 -75q-106 -76 -173 -247z" />
<glyph unicode="4" horiz-adv-x="2088" d="M708 -22v132q295 54 352 82q39 20 52 66q24 71 36 388h-866q-46 0 -252 -8q-5 188 -20 348l798 1142l340 510q220 89 442 252l102 -68q-52 -474 -52 -812l4 -778v-196q205 6 388 40l56 -72q-104 -169 -182 -368q-112 16 -262 16q6 -337 16 -381q11 -49 44 -73 q46 -33 236 -68l96 -20v-132q-371 22 -666 22q-304 0 -662 -22zM1150 1024v1178l-804 -1178h804z" />
<glyph unicode="5" horiz-adv-x="2088" d="M1908 2812l50 -62q-139 -209 -228 -428q-390 6 -988 6q-53 -185 -92 -358q75 4 128 4q511 0 794 -263q282 -263 282 -679q0 -463 -329 -783q-328 -319 -855 -319q-248 0 -512 82q52 240 90 630l182 -6q53 -239 143 -359q91 -121 277 -121q205 0 351 167q145 166 145 467 q0 320 -193 513t-505 193q-107 0 -288 -28l-94 96q203 521 328 1230q472 -20 786 -20q295 0 528 38z" />
<glyph unicode="6" horiz-adv-x="2088" d="M1752 2876l68 -210q-320 -144 -504 -287q-190 -147 -316 -333q-127 -186 -234 -484q232 190 345 246q114 56 207 56q258 0 466 -235t208 -617q0 -366 -204 -670q-276 -412 -768 -412q-404 0 -659 281t-255 787q0 398 179 776q178 375 559 664q379 288 908 438zM674 928 q0 -393 164 -620q110 -150 272 -150q146 0 244 131t98 461q0 384 -148 586q-102 140 -264 140q-150 0 -258 -131t-108 -417z" />
<glyph unicode="7" horiz-adv-x="2088" d="M354 2044h-194q199 476 298 772q387 -22 806 -22q393 0 710 22v-182l-490 -1394q-91 -266 -200 -624q-103 -337 -198 -686q-168 18 -294 18t-250 -16l-50 64l310 614l804 1698h-938q-101 0 -144 -34q-60 -44 -170 -230z" />
<glyph unicode="8" horiz-adv-x="2088" d="M674 1362q-270 216 -365 377t-95 365q0 320 244 539t664 219q370 0 558 -164t188 -418q0 -179 -95 -327q-94 -147 -397 -371q344 -254 455 -428t111 -396q0 -352 -253 -590t-697 -238q-418 0 -624 185t-206 479q0 217 103 380q105 166 409 388zM1176 1728 q129 122 172 210q76 151 76 306q0 189 -101 296q-100 106 -267 106q-156 0 -250 -94t-94 -244q0 -114 84 -232q83 -118 380 -348zM886 1206q-109 -121 -152 -222q-70 -162 -70 -336q0 -233 119 -370q118 -136 279 -136q143 0 244 110q100 109 100 284q0 156 -105 305 q-106 150 -415 365z" />
<glyph unicode="9" horiz-adv-x="2088" d="M360 -102l-74 206q301 120 517 295q213 173 353 419q91 158 158 396q-286 -218 -357 -252q-69 -34 -173 -34q-268 0 -481 247t-213 641q0 278 126 528q126 251 358 384q233 134 522 134q412 0 657 -266t245 -766q0 -384 -162 -758q-193 -444 -565 -734 q-371 -290 -911 -440zM644 2068q0 -379 152 -588q106 -144 268 -144q154 0 256 129t102 431q0 233 -62 411q-61 176 -160 249q-98 72 -202 72q-147 0 -251 -128q-103 -127 -103 -432z" />
<glyph unicode=":" horiz-adv-x="1410" d="M706 1960q150 0 255 -106t105 -254q0 -150 -106 -255t-254 -105q-150 0 -255 105t-105 255q0 148 105 254t255 106zM706 650q150 0 255 -106t105 -254q0 -150 -106 -255t-254 -105q-150 0 -255 105t-105 255q0 148 105 254t255 106z" />
<glyph unicode=";" horiz-adv-x="1410" d="M708 1960q151 0 254 -106q104 -107 104 -254q0 -150 -105 -255t-253 -105q-150 0 -255 105t-105 255q0 147 104 254q103 106 256 106zM388 86l-86 106l120 150q130 161 242 318q188 -54 299 -198t111 -330q0 -230 -154 -504q-155 -275 -472 -558l-146 146 q223 296 296 444q48 100 48 214q0 104 -55 165t-125 61q-27 0 -78 -14z" />
<glyph unicode="&#x3c;" d="M2468 254l-2206 922v334l2206 924v-400l-1704 -690l1704 -690v-400z" />
<glyph unicode="=" d="M262 2006h2206v-370h-2206v370zM262 1058h2206v-370h-2206v370z" />
<glyph unicode="&#x3e;" d="M262 2434l2206 -924v-334l-2206 -922v398l1704 690l-1704 690v402z" />
<glyph unicode="?" horiz-adv-x="1662" d="M260 2108h-170q70 330 90 608q383 160 652 160q348 0 519 -184t171 -424q0 -108 -36 -212t-122 -238q-43 -66 -229 -301q-188 -237 -205 -263q-38 -66 -72 -161q-35 -98 -60 -277h-202q6 256 53 446q46 185 197 510q116 246 116 378q0 144 -87 232t-221 88 q-127 0 -219 -71q-91 -70 -175 -291zM726 642q148 0 252 -104t104 -252t-104 -252t-252 -104q-145 0 -251 104q-105 104 -105 252t104 252t252 104z" />
<glyph unicode="@" horiz-adv-x="3796" d="M2358 1850l488 20l-366 -1256q-62 -207 -62 -308q0 -68 47 -115t117 -47q136 0 354 159q219 160 362 454q144 295 144 629q0 552 -355 907t-925 355q-492 0 -894 -231t-638 -671t-236 -944q0 -692 441 -1133t1123 -441q562 0 1008 302t632 800h122q-240 -587 -699 -901 q-458 -313 -1067 -313q-770 0 -1270 497t-500 1259q0 524 249 972q248 447 698 689q448 241 987 241q444 0 776 -177t497 -497t165 -678q0 -410 -177 -752q-178 -343 -445 -506q-269 -164 -576 -164q-201 0 -305 98q-103 97 -103 260q0 98 48 274q-161 -271 -256 -378 q-125 -143 -250 -210q-83 -44 -184 -44q-141 0 -239 113q-97 112 -97 339q0 278 110 566q109 285 290 498q181 212 396 338q122 72 236 72t187 -70q74 -71 99 -244zM2062 1780q-53 0 -114 -44q-59 -43 -163 -224q-102 -177 -200 -472q-97 -291 -97 -486q0 -93 37 -140 q37 -48 79 -48q60 0 160 96q173 167 304 483q130 314 130 567q0 142 -45 205t-91 63z" />
<glyph unicode="A" horiz-adv-x="3198" d="M1784 -22v148q243 44 280 72q38 29 38 76q0 28 -12 64q-23 61 -208 504q-282 6 -470 6q-154 0 -514 -6q-222 -524 -222 -574q0 -48 32 -71t284 -71v-148q-246 22 -482 22q-253 0 -504 -22v148q180 37 248 86q46 32 84 96q77 124 466 976l702 1592h162q184 -465 770 -1754 q326 -718 388 -812q43 -66 88 -96q42 -27 278 -88v-148q-346 22 -658 22q-310 0 -750 -22zM1400 2014l-408 -942l396 -2q54 0 408 2z" />
<glyph unicode="B" horiz-adv-x="2686" d="M18 2668v148q475 -22 820 -22q111 0 426 8q124 4 258 4q424 0 612 -126q248 -164 248 -482q0 -276 -188 -462q-139 -142 -428 -232q253 -19 412 -91q156 -70 243 -215q87 -144 87 -338q0 -238 -135 -444t-405 -318q-269 -112 -694 -112q-114 0 -288 6q-213 10 -306 10 q-152 0 -662 -24v148l334 72q44 14 66 36t34 60q16 61 18 350q4 448 4 938q0 267 -10 760q-4 153 -36 206q-17 28 -62 46q-20 8 -348 74zM1064 1574h100q328 0 476 138t148 408q0 234 -123 356q-124 122 -359 122q-94 0 -242 -20v-1004zM1064 1366v-1132q134 -24 246 -24 q274 0 413 147q139 146 139 455q0 316 -158 435t-538 119h-102z" />
<glyph unicode="C" horiz-adv-x="3112" d="M2782 528l102 -192q-348 -229 -639 -323q-294 -95 -613 -95q-677 0 -1063 385q-387 385 -387 1037q0 693 436 1114q437 422 1206 422q246 0 475 -39q233 -40 567 -145q-12 -130 -12 -270q0 -242 30 -592h-220q-100 384 -132 450q-74 151 -243 254q-170 104 -457 104 q-438 0 -676 -268q-288 -322 -288 -890q0 -587 287 -895q286 -307 773 -307q433 0 854 250z" />
<glyph unicode="D" horiz-adv-x="3372" d="M48 2668v148q456 -22 770 -22q232 0 642 12q284 10 498 10q376 0 596 -96q305 -132 477 -406q173 -275 173 -710q0 -485 -226 -861q-227 -378 -636 -589q-341 -178 -830 -178q-59 0 -372 13t-366 13q-140 0 -726 -24v148l84 16q263 47 307 86q46 41 53 118 q10 110 10 1214q0 809 -16 908q-11 71 -50 102q-41 32 -304 80zM1122 244q239 -40 406 -40q460 0 694 272q298 347 298 1010q0 568 -264 862q-214 240 -670 240q-189 0 -464 -38q-20 -320 -20 -1158q0 -470 20 -1148z" />
<glyph unicode="E" d="M32 2668v148q482 -24 1048 -24q656 0 1352 24q6 -415 50 -730h-170q-23 62 -34 98q-97 284 -154 332q-55 46 -252 46h-764q-15 -313 -20 -982l348 -4q271 0 335 53q62 52 133 357h166q-22 -287 -22 -518q0 -222 22 -534h-166q-56 324 -108 372t-314 48h-392v-1118h796 q134 0 176 16q68 25 128 92q123 135 286 424h176q-122 -347 -250 -790q-667 22 -1426 22q-351 0 -944 -22v148q332 60 380 96q66 46 66 232v68l4 792v640l-2 296q0 215 -22 266q-22 52 -85 82q-61 29 -341 70z" />
<glyph unicode="F" horiz-adv-x="2560" d="M28 2668v148q650 -22 978 -22q842 0 1446 22q12 -445 54 -788h-164l-20 62q-85 275 -154 376q-29 41 -86 61q-54 19 -222 19h-766v-966h348q201 0 253 20q50 19 81 70q47 78 102 328h166q-24 -304 -24 -578q0 -250 24 -498h-166q-65 291 -92 352q-23 42 -64 60 q-53 22 -268 22h-360v-896q0 -163 19 -202q19 -40 65 -58q75 -32 324 -62q33 -2 94 -12v-148q-483 22 -830 22q-345 0 -738 -22v148q344 60 389 96q46 36 53 132q5 66 10 1094l-2 540v164q0 298 -15 352q-15 53 -51 76q-44 27 -304 74q-5 1 -19 3t-29.5 5z" />
<glyph unicode="G" horiz-adv-x="3498" d="M3432 1452v-146q-273 -49 -348 -86q-36 -18 -54 -68t-18 -308q0 -412 12 -728q-147 -26 -298 -58q-432 -93 -611 -116q-187 -24 -401 -24q-500 0 -788 124q-362 158 -554 488t-192 786q0 810 598 1248q428 312 1130 312q473 0 1060 -136q-4 -105 -4 -190q0 -222 20 -664 h-204q-85 334 -169 461q-86 130 -264 206q-180 77 -437 77q-338 0 -565 -138q-228 -139 -352 -427q-125 -291 -125 -665q0 -601 283 -908q284 -308 745 -308q231 0 502 104v616q0 200 -20 260q-13 35 -55 58q-40 22 -257 66l-74 18v146q450 -22 692 -22q183 0 748 22z" />
<glyph unicode="H" horiz-adv-x="3284" d="M32 2668v148q353 -22 736 -22q398 0 772 22v-148q-304 -52 -357 -75t-74 -71t-21 -292l2 -138l-2 -514q270 -10 608 -10q303 0 510 10l-4 710q0 191 -22 238q-22 48 -84 72q-52 21 -342 70v148q377 -22 710 -22q315 0 798 22v-148l-318 -68q-50 -13 -73 -34 q-20 -19 -31 -50q-20 -66 -24 -414q-4 -491 -4 -720q0 -699 10 -1008q5 -108 50 -151q46 -43 312 -85l78 -12v-148q-412 22 -752 22q-335 0 -756 -22v148l336 68q59 19 85 61q25 40 25 185l6 882l-550 8q-3 0 -568 -8q2 -818 12 -978q6 -86 51 -126t303 -78q66 -10 86 -14 v-148q-434 22 -796 22q-370 0 -712 -22v148q271 53 334 74q57 19 83 63q25 43 25 189l8 780q0 610 -6 1042q-1 210 -34 266q-18 34 -63 54q-47 20 -347 74z" />
<glyph unicode="I" horiz-adv-x="1576" d="M1546 2816v-148l-74 -10q-266 -32 -319 -80t-53 -186v-72l-4 -670l2 -766l2 -390q0 -171 17 -216q16 -43 59 -66q73 -38 296 -74l74 -12v-148q-400 22 -722 22q-307 0 -784 -22v148q314 59 342 70q46 18 70 52q31 47 32 188q4 295 4 1130l-6 728v60q0 160 -46 206 q-47 47 -310 90l-86 18v148q503 -22 770 -22q284 0 736 22z" />
<glyph unicode="J" horiz-adv-x="1922" d="M428 2668v148q474 -22 774 -22q309 0 724 22v-148l-288 -58q-71 -18 -96 -38q-18 -14 -26 -38q-22 -53 -25 -205q-3 -151 -3 -813l2 -324q0 -446 -20 -574q-35 -213 -148 -368q-114 -156 -310 -244q-195 -88 -434 -88q-202 0 -466 82q50 272 62 756h202q30 -399 118 -518 q65 -92 174 -92q138 0 178 168q28 113 28 1224q0 854 -9 929q-9 76 -43 101q-51 39 -394 100z" />
<glyph unicode="K" horiz-adv-x="3198" d="M32 2668v148q377 -22 762 -22q393 0 752 22v-148l-332 -68q-64 -23 -88 -62q-26 -41 -26 -180l-4 -912q604 592 866 914q124 151 124 200q0 34 -42 52q-20 8 -254 56v148q374 -22 618 -22q243 0 582 22v-148q-290 -42 -383 -90q-94 -49 -291 -244l-688 -704 q156 -198 462 -558l424 -510q168 -212 291 -288q121 -76 437 -148v-148q-377 22 -782 22q-409 0 -768 -22v148q182 20 234 54q32 23 32 60q0 33 -70 122l-792 1034l2 -138v-628q0 -296 18 -360q10 -39 54 -65q41 -24 298 -65q68 -12 78 -14v-148q-374 22 -688 22 q-270 0 -826 -22v148q343 59 398 100q38 29 44 102q10 97 10 1144q0 880 -9 971t-43 119q-54 45 -400 106z" />
<glyph unicode="L" d="M26 2668v148q500 -22 798 -22q303 0 778 22v-148q-410 -61 -448 -80q-60 -34 -60 -174l-6 -514v-1664h728q180 0 240 24q82 34 158 122q75 87 268 408h180q-140 -388 -262 -812q-832 22 -1414 22q-473 0 -960 -22v148q356 71 392 96t45 97q9 71 9 959l-2 728v128 q0 321 -22 384q-16 48 -55 67q-36 18 -367 83z" />
<glyph unicode="M" horiz-adv-x="4010" d="M20 2668v148q351 -22 590 -22q255 0 538 22q87 -235 220 -540q374 -846 658 -1426l504 1088q123 273 191 437q71 171 171 441q371 -22 552 -22q156 0 536 22v-148q-50 -10 -90 -16q-258 -43 -299 -80q-42 -37 -52 -149q-11 -118 -11 -907q0 -994 2 -1052q6 -157 23 -194 q16 -34 43 -52q68 -39 294 -74l90 -18v-148q-474 22 -738 22q-274 0 -774 -22v148q316 58 355 75q40 17 59 45q20 29 27 76q7 45 7 410q4 699 4 1228q0 12 -0.5 44t-1 94.5t-0.5 123.5q-110 -228 -804 -1776l-202 -446h-154l-1018 2236q-4 -233 -4 -444q0 -998 18 -1320 q11 -186 20 -206q14 -38 60 -62q48 -25 272 -62q3 -1 82 -16v-148q-277 22 -548 22q-273 0 -606 -22v148q262 47 316 66q56 20 84 66t28 172l24 1272q6 334 6 496q0 248 -26 328q-17 48 -61 72q-46 25 -291 56q-74 10 -94 14z" />
<glyph unicode="N" horiz-adv-x="3284" d="M12 2668v148q268 -22 510 -22q245 0 560 22q241 -324 1468 -1814l-8 1088q-11 399 -31 443q-21 44 -69 70q-45 24 -338 65v148q315 -22 562 -22q240 0 592 22v-148q-49 -10 -92 -16q-236 -36 -282 -79t-54 -177q-20 -288 -20 -1152q0 -576 22 -1280q-94 -28 -186 -66 l-758 956l-1156 1406l6 -950l16 -924q6 -103 20 -131q13 -25 40 -43q46 -27 284 -70q37 -6 84 -16v-148q-336 22 -552 22q-187 0 -604 -22v148l94 18q232 36 274 70q28 22 40 63q13 42 26 595q22 785 22 1376q0 192 -21 246t-75 84q-53 29 -274 70z" />
<glyph unicode="O" horiz-adv-x="3330" d="M174 1352q0 687 421 1105q422 419 1129 419q667 0 1049 -377q381 -377 381 -1009q0 -402 -150 -732q-119 -263 -305 -442q-187 -180 -383 -268q-291 -130 -704 -130q-684 0 -1061 378q-377 379 -377 1056zM866 1460q0 -728 264 -1070q196 -256 562 -256q253 0 425 130 q174 131 259 417q86 288 86 667q0 293 -52 556q-53 267 -142 416q-91 151 -241 242q-152 92 -365 92q-239 0 -424 -133q-186 -134 -279 -418q-93 -285 -93 -643z" />
<glyph unicode="P" horiz-adv-x="2560" d="M28 2668v148q541 -22 868 -22l672 10q301 0 474 -64q174 -64 282 -234t108 -412q0 -388 -264 -639q-265 -251 -722 -251q-146 0 -354 34q4 -476 4 -620l-2 -146q0 -192 32 -230q53 -65 370 -102q84 -10 108 -14v-148q-559 22 -826 22q-304 0 -750 -22v148q352 61 393 98 q42 37 49 134q8 104 14 1084l-2 606q-1 363 -14 430q-12 64 -52 92q-51 35 -300 82q-37 6 -88 16zM1092 1464q122 -12 210 -12q232 0 362 142t130 440q0 263 -128 400q-127 136 -364 136q-87 0 -210 -20v-1086z" />
<glyph unicode="Q" horiz-adv-x="3330" d="M570 272q-182 199 -266 402q-128 313 -128 676q0 615 344 1024q424 502 1214 502q660 0 1039 -376t379 -1014q0 -696 -403 -1120t-1003 -424q-178 0 -420 58q647 -269 1048 -372q214 -58 406 -58q137 0 259 25q126 26 329 99l70 -144q-387 -249 -622 -352 q-135 -56 -246 -56t-258 46q-206 65 -422 186q-130 73 -546 352q-274 186 -468 258q-193 72 -518 114v200q92 -7 212 -26zM870 1496q0 -762 268 -1108q193 -256 580 -256q338 0 518 234q228 300 228 1008q0 705 -250 1028q-194 252 -540 252q-255 0 -445 -142 q-191 -143 -275 -429q-84 -287 -84 -587z" />
<glyph unicode="R" horiz-adv-x="2986" d="M24 2668v148q661 -22 798 -22q146 0 376 7t362 7q299 0 464 -76q167 -77 267 -242q101 -167 101 -370q0 -174 -72 -335t-192 -273q-81 -76 -250 -160l398 -662q193 -315 251 -376t127 -96q105 -49 380 -92v-148q-333 22 -554 22q-233 0 -556 -22q-247 568 -626 1286 q-122 5 -238 16l6 -832q5 -155 26 -191q22 -37 62 -53q29 -14 358 -78v-148q-456 22 -748 22q-288 0 -740 -22v148q339 61 383 96q43 34 55 134q7 59 8 1026l-2 596q0 423 -16 506q-12 62 -55 93t-283 73zM1062 1506q89 -4 148 -4q280 0 413 133t133 405q0 256 -126 391 t-342 135q-83 0 -228 -14z" />
<glyph unicode="S" horiz-adv-x="2260" d="M2000 2004h-200q-66 384 -200 515t-364 131q-205 0 -321 -107q-115 -106 -115 -273q0 -149 106 -268q107 -122 504 -302q398 -180 556 -380q158 -203 158 -500q0 -360 -271 -631t-875 -271q-213 0 -408 32q-152 24 -362 92q34 347 34 694v134h196q77 -400 188 -532 q150 -182 416 -182q212 0 340 126t128 322q0 123 -53 220q-52 95 -158 174q-107 79 -381 206q-423 199 -568 386q-144 184 -144 434q0 368 272 610t784 242q342 0 738 -130q-12 -314 -12 -436q0 -142 12 -306z" />
<glyph unicode="T" horiz-adv-x="2772" d="M2688 1974h-186q-139 426 -169 478q-32 57 -87 79q-57 23 -356 23h-194v-1868q0 -348 24 -420q12 -38 59 -61q50 -24 363 -79v-148q-597 22 -784 22q-247 0 -722 -22v148q317 55 380 88q40 22 55 73t15 419v1848h-336q-170 0 -225 -28t-91 -102q-55 -115 -152 -450h-182 q35 295 42 406q8 113 18 436q660 -19 1295 -19q127 0 253 1q639 6 920 18q2 -386 60 -842z" />
<glyph unicode="U" horiz-adv-x="3244" d="M22 2668v148q458 -22 750 -22t742 22v-148q-296 -48 -368 -82q-47 -19 -64 -58q-20 -51 -20 -264v-1024q0 -394 44 -538q56 -188 216 -302t452 -114q322 0 486 131q165 131 211 345q47 217 47 734q0 136 -16 676q-11 308 -30 362q-12 32 -42 50q-38 26 -260 68 q-11 3 -78 16v148q412 -22 598 -22q215 0 544 22v-148q-304 -55 -352 -90q-48 -34 -58 -100q-18 -113 -24 -1018q-5 -528 -26 -682q-35 -223 -109 -361t-220 -257q-145 -118 -321 -172q-231 -70 -496 -70q-446 0 -708 129q-261 128 -365 338q-103 207 -103 611v1236 q0 238 -24 300q-18 40 -63 60q-49 21 -343 76z" />
<glyph unicode="V" horiz-adv-x="2946" d="M16 2668v148q547 -22 730 -22q237 0 676 22v-148q-250 -61 -283 -88q-35 -29 -35 -72q0 -42 30 -122l548 -1530l372 1024l198 578q8 30 8 52q0 46 -52 74q-12 6 -270 84v148q317 -22 506 -22q173 0 484 22v-148q-201 -47 -266 -94q-38 -26 -68 -83q-32 -61 -386 -951 l-620 -1622h-180l-618 1610q-352 880 -400 962q-25 45 -66 74q-53 39 -308 104z" />
<glyph unicode="W" horiz-adv-x="4350" d="M22 2668v148q324 -22 614 -22q205 0 762 22v-148q-190 -41 -250 -92q-38 -30 -38 -74q0 -26 6 -56q5 -20 162 -496l352 -1056q87 209 452 1166q-121 332 -163 405q-43 75 -94 106q-49 30 -269 97v148q477 -22 700 -22q218 0 680 22v-148l-48 -12q-202 -46 -237 -75 t-35 -73q0 -22 6 -52l234 -728l274 -812q508 1473 508 1596q0 40 -38 70q-38 31 -278 86v148q295 -22 480 -22q133 0 526 22v-148q-221 -42 -291 -98q-69 -56 -131 -236q-47 -143 -172 -466q-262 -686 -696 -1950h-186q-192 625 -638 1782q-401 -1016 -676 -1782h-186 l-514 1452q-340 928 -414 1074q-37 77 -84 112q-66 51 -318 112z" />
<glyph unicode="X" horiz-adv-x="3158" d="M114 2668v148q474 -22 758 -22q304 0 722 22v-148q-242 -42 -286 -74q-34 -24 -34 -62q0 -45 22 -86q52 -97 424 -674q566 704 566 788q0 24 -25 40q-24 15 -299 68v148q399 -22 552 -22q109 0 536 22v-148q-190 -31 -276 -73q-81 -40 -148 -107q-41 -46 -430 -510 q-240 -287 -338 -420l680 -1056q134 -200 213 -254q81 -55 347 -122v-148q-393 22 -748 22q-349 0 -688 -22v148q221 47 266 80q32 24 32 54q0 29 -22 69q-27 49 -468 751q-236 -277 -560 -716q-60 -80 -60 -114q0 -32 30 -52q43 -28 310 -72v-148q-340 22 -576 22 q-249 0 -554 -22v148q222 32 282 60q88 42 192 150q176 180 798 960q-584 930 -706 1098q-82 107 -165 157q-82 49 -347 117z" />
<glyph unicode="Y" horiz-adv-x="3072" d="M2 2668v148l394 -14q286 -8 320 -8q208 0 718 22v-148q-230 -53 -263 -79q-35 -27 -35 -57q0 -32 30 -82q81 -134 236 -412l326 -564l562 1026q20 38 20 56q0 28 -29 48q-30 21 -267 64v148l98 -6q321 -16 446 -16q133 0 522 22v-148q-259 -49 -341 -101 q-80 -51 -171 -185q-54 -79 -718 -1176v-720q2 -174 21 -216q20 -43 73 -68q33 -16 288 -64l66 -12v-148q-532 22 -744 22q-158 0 -768 -22v148q53 10 96 16q216 32 276 66q39 22 59 73q19 50 19 295v590l-394 626q-332 537 -409 642q-70 95 -149 144q-78 48 -282 90z" />
<glyph unicode="Z" horiz-adv-x="2646" d="M416 2020h-166q41 365 60 796q582 -22 1070 -22q475 0 1122 22v-168l-694 -990q-782 -1134 -954 -1422h882q241 0 317 29q75 29 143 125q101 143 180 400h180l-92 -450q-22 -121 -56 -362l-1172 22q-322 0 -1154 -22v160l1126 1638l510 770h-814q-164 0 -226 -21t-92 -69 q-72 -107 -126 -296q-11 -41 -44 -140z" />
<glyph unicode="[" horiz-adv-x="1496" d="M1308 2886v-216h-378v-3282h378v-216q-326 12 -474 12q-178 0 -448 -12q14 611 14 1826q0 1459 -14 1888q290 -10 474 -10q104 0 448 10z" />
<glyph unicode="\" horiz-adv-x="2306" d="M220 2852h396l1468 -2926h-396z" />
<glyph unicode="]" horiz-adv-x="1496" d="M184 -828v216h380v3282h-380v216q326 -12 476 -12q176 0 446 12q-12 -590 -12 -1826q0 -1472 12 -1888q-287 10 -474 10q-104 0 -448 -10z" />
<glyph unicode="^" horiz-adv-x="2388" d="M300 1332l822 1436h164l808 -1436h-318l-590 1024l-580 -1024h-306z" />
<glyph unicode="_" horiz-adv-x="2048" d="M-24 -308h2096v-204h-2096v204z" />
<glyph unicode="`" horiz-adv-x="1364" d="M954 2154h-176q-332 386 -598 652l32 48q154 -8 240 -8q61 0 272 8q50 -170 84 -272z" />
<glyph unicode="a" horiz-adv-x="2048" d="M444 1242l-178 18q57 276 74 504q366 176 760 176q230 0 367 -74q136 -73 189 -202q52 -126 52 -398l-8 -680q0 -194 33 -245t87 -51q65 0 190 70l76 -116q-272 -192 -402 -252q-94 -42 -180 -42q-113 0 -196 62q-82 61 -112 184q-240 -166 -336 -207q-97 -41 -232 -41 q-207 0 -337 139q-131 140 -131 371q0 165 88 304q60 98 222 188l726 344q-4 237 -75 320q-70 82 -211 82q-142 0 -247 -93t-219 -361zM1196 1078q-331 -155 -416 -252q-86 -98 -86 -256q0 -162 64 -238t166 -76q78 0 151 52q72 52 98 147q25 93 25 399q0 18 -2 224z" />
<glyph unicode="b" horiz-adv-x="2134" d="M-62 2494v140q392 85 790 284l98 -62q-54 -374 -54 -1084q0 -24 2 -194q248 242 362 305t244 63q255 0 430 -208q176 -209 176 -618q0 -526 -336 -858q-337 -332 -864 -332q-257 0 -552 116q18 562 18 1390q0 924 -12 974q-20 98 -130 98q-46 0 -172 -14zM774 268 q142 -76 260 -76q178 0 272 124q134 176 134 548q0 382 -130 572q-86 122 -226 122q-130 0 -220 -115t-90 -383v-792z" />
<glyph unicode="c" horiz-adv-x="1836" d="M1666 1234l-180 10q-20 285 -117 394q-98 110 -245 110q-184 0 -294 -140q-146 -188 -146 -542q0 -363 160 -550q161 -188 382 -188q100 0 197 31q100 32 265 121l94 -152q-336 -261 -489 -329q-155 -69 -331 -69q-356 0 -590 249t-234 675q0 455 274 780 q275 326 762 326q282 0 608 -150q-40 -160 -78 -378z" />
<glyph unicode="d" horiz-adv-x="2220" d="M1068 2490v146q459 98 796 282l96 -70q-28 -253 -42 -584q-14 -342 -14 -736q0 -759 4 -1026q2 -141 36 -175q35 -35 122 -35q5 0 23 0.5t53.5 1t71.5 0.5v-142q-249 -35 -421 -79q-173 -44 -377 -123l-98 48q21 120 34 260q-225 -188 -378 -260q-108 -50 -228 -50 q-236 0 -398 202q-212 259 -212 674q0 200 57 400q57 199 182 354q123 152 332 257q206 103 423 103q51 0 108 -10q60 -10 132 -30q6 220 6 310q0 211 -32 257q-32 45 -114 45q-56 0 -162 -20zM1374 1026q0 409 -58 526q-77 152 -244 152q-142 0 -256 -155t-114 -531 q0 -368 134 -556q92 -128 236 -128q170 0 248 174q54 126 54 518z" />
<glyph unicode="e" horiz-adv-x="1922" d="M1716 520l104 -152q-314 -266 -578 -386q-113 -52 -292 -52q-372 0 -568 220q-248 277 -248 736q0 477 284 776q283 298 704 298q384 0 562 -232q118 -151 136 -474q-100 -66 -186 -150q-224 8 -428 8q-267 0 -528 -8q-2 -58 -2 -74q0 -282 129 -496t387 -214 q126 0 241 42q113 41 283 158zM682 1310q100 -4 184 -4q180 0 420 16q-12 255 -85 338q-73 84 -201 84q-124 0 -212 -100t-106 -334z" />
<glyph unicode="f" horiz-adv-x="1410" d="M1674 2268l-174 14q-48 264 -121 343t-179 79q-134 0 -215 -118t-81 -540q0 -7 0.5 -28.5t1 -63t0.5 -82.5l198 -6q147 0 326 26l30 -48q-68 -110 -126 -234q-203 27 -428 32l6 -1136l-2 -112q0 -133 46 -180t234 -82q5 -1 18 -3t28 -5l30 -6v-140q-458 22 -658 22 q-247 0 -540 -22v140q220 58 254 97q33 38 44 240q10 201 12 1187q-150 0 -294 -18v142q153 60 294 142q0 304 16 374q30 147 126 268q125 161 331 264q208 104 437 104q237 0 504 -92q-38 -142 -58 -230z" />
<glyph unicode="g" horiz-adv-x="2088" d="M2056 1892l20 -38q-68 -111 -116 -228q-130 25 -262 26q102 -180 102 -352q0 -190 -95 -348t-288 -252q-192 -94 -405 -94q-46 0 -110 6q-75 7 -146 16q-126 -114 -126 -180q0 -36 46 -60q73 -38 356 -38l330 4q404 0 534 -106t130 -322q0 -213 -128 -392 q-127 -177 -409 -286q-281 -108 -659 -108q-415 0 -624 148q-146 104 -146 254q0 59 26 100q25 39 106 90q160 98 292 202q-153 54 -215 136q-63 82 -63 190q0 64 17 96q16 30 73 78q213 168 298 246q-170 83 -246 190q-108 152 -108 368q0 310 210 506q209 196 596 196 q96 0 193 -18t195 -54q199 -4 234 -4q201 0 388 28zM768 1328q0 -305 106 -460q62 -92 172 -92q91 0 159 95q67 94 67 357q0 308 -96 450q-62 90 -172 90q-98 0 -167 -95t-69 -345zM688 -98q-188 -146 -188 -280q0 -92 111 -176t337 -84q302 0 473 108t171 246q0 84 -60 124 q-78 54 -322 54l-248 -4q-66 0 -274 12z" />
<glyph unicode="h" horiz-adv-x="2302" d="M32 2500v144q311 72 467 127q149 53 321 147l100 -62q-22 -190 -36 -498q-18 -438 -18 -676v-122q250 255 362 316q110 60 272 60q220 0 337 -102t141 -264q16 -109 16 -676q0 -450 8 -570q6 -79 38 -114q31 -34 178 -72q3 -1 78 -20v-140q-334 22 -540 22 q-217 0 -528 -22v140q177 47 209 85q33 39 33 169q0 840 -2 886q-12 161 -78 229q-66 67 -182 67q-111 0 -202 -73q-92 -74 -122 -199q-20 -88 -20 -492q0 -444 8 -510q8 -62 48 -98q40 -35 184 -64v-140q-305 22 -494 22q-132 0 -578 -22v140q18 6 52 14q162 40 190 70 q40 46 48 180q16 278 16 1104l-6 872q0 83 -32 121q-31 37 -90 37q-79 0 -178 -16z" />
<glyph unicode="i" horiz-adv-x="1282" d="M662 2890q134 0 229 -95t95 -229t-95 -229t-229 -95t-229 95t-95 229q0 135 94 229q95 95 230 95zM82 1546v144q453 79 784 278l102 -54q-28 -242 -36 -432q-14 -292 -14 -892q0 -256 18 -326q12 -46 47 -69t239 -77v-140q-271 22 -508 22q-230 0 -642 -22v140l52 12 q177 41 208 69q32 29 40 103q18 190 18 784q0 344 -18 400q-24 74 -114 74q-75 0 -176 -14z" />
<glyph unicode="j" horiz-adv-x="1196" d="M632 2888q135 0 232 -95q96 -95 96 -231t-96 -232t-232 -96t-232 96t-96 232t96 231q97 95 232 95zM44 1550v134q270 65 444 128q173 63 352 156l94 -58q-26 -228 -32 -354q-15 -330 -16 -914q-1 -488 -22 -676q-30 -290 -134 -458q-104 -166 -300 -267 q-197 -101 -414 -101q-164 0 -332 76q51 209 64 546h174q12 -241 71 -321q58 -79 139 -79q79 0 132 68q65 91 82 360q10 183 10 882q0 754 -10 804q-18 92 -130 92q-40 0 -172 -18z" />
<glyph unicode="k" horiz-adv-x="2220" d="M36 2504v130q472 114 794 284l96 -66q-29 -246 -40 -519q-10 -267 -12 -1299l340 362q166 179 180 206q14 26 14 50q0 33 -32 56q-37 30 -154 42v142q358 -22 494 -22t478 22v-142q-232 -42 -348 -114q-165 -98 -526 -452l488 -682q167 -233 248 -292q59 -44 214 -92 v-140q-362 22 -530 22q-166 0 -518 -22v140q86 23 104 39q18 17 18 43q0 25 -16 58q-26 45 -304 490l-150 242v-436q0 -266 10 -300q12 -51 45 -77q31 -24 179 -59v-140q-315 22 -530 22q-209 0 -542 -22v140q207 43 254 96q33 39 44 273q10 221 10 1371q0 537 -10 578 q-22 78 -132 78q-62 0 -166 -10z" />
<glyph unicode="l" horiz-adv-x="1236" d="M40 2500v140q292 70 451 126q155 55 339 152l98 -70q-28 -249 -43 -604q-15 -348 -15 -790q0 -939 5 -1077q4 -123 37 -159q48 -52 256 -100v-140q-307 22 -568 22q-267 0 -574 -22v140q221 49 262 92q40 42 48 188q12 212 12 1126q0 842 -12 900q-18 92 -138 92 q-58 0 -158 -16z" />
<glyph unicode="m" horiz-adv-x="3412" d="M46 1534v136q452 92 794 276l94 -50q-26 -153 -38 -342q234 262 341 323q109 63 261 63q208 0 338 -108q96 -78 150 -278q193 224 333 305q141 81 301 81q176 0 299 -84q122 -83 157 -221q34 -135 34 -511l-2 -316q0 -454 18 -546q7 -41 42 -67q32 -24 240 -77v-140 q-318 22 -530 22q-211 0 -532 -22v140q172 48 201 77t35 103q10 91 10 664q0 292 -14 378q-19 114 -79 168q-58 52 -151 52q-122 0 -217 -84q-96 -85 -121 -238q-14 -86 -14 -574q0 -338 8 -394q7 -52 43 -81q35 -29 187 -71v-140q-252 22 -476 22q-214 0 -526 -22v140 q157 42 191 71q33 29 41 85q12 76 12 576q0 383 -8 452q-17 137 -74 197q-58 61 -166 61q-124 0 -213 -81q-89 -82 -113 -199q-24 -118 -24 -372q0 -583 4 -622q6 -63 46 -98q40 -36 188 -70v-140q-329 22 -532 22q-204 0 -538 -22v140q243 55 272 108q40 71 40 782 q0 418 -16 460q-30 84 -140 84q-66 0 -156 -18z" />
<glyph unicode="n" horiz-adv-x="2302" d="M48 1530v144q256 54 439 118q170 60 347 158l104 -60q-27 -144 -38 -332q223 254 334 317q113 65 264 65q150 0 259 -58t162 -147q52 -88 69 -239q10 -90 10 -452l-2 -356q0 -339 8 -405q7 -61 39 -88q32 -28 177 -59l76 -18v-140q-327 22 -518 22q-195 0 -548 -22v140 q153 37 188 69t42 103q12 100 12 662q0 399 -34 480q-55 130 -210 130q-111 0 -205 -80t-119 -204q-26 -127 -26 -546q0 -381 16 -470q8 -51 36 -73q30 -24 188 -71v-140q-298 22 -508 22q-198 0 -562 -22v140q220 58 249 84t39 120q18 216 18 560q0 526 -12 578 q-24 88 -122 88q-62 0 -172 -18z" />
<glyph unicode="o" horiz-adv-x="2260" d="M146 970q0 444 275 717t731 273q453 0 707 -253q255 -253 255 -697q0 -513 -271 -796q-272 -284 -731 -284q-464 0 -715 264q-251 265 -251 776zM744 1076q0 -562 158 -810q90 -142 258 -142q154 0 238 122q120 174 120 602q0 546 -150 776q-92 144 -258 144 q-156 0 -244 -124q-122 -170 -122 -568z" />
<glyph unicode="p" horiz-adv-x="2220" d="M16 1524v138q329 83 463 132q134 48 327 152l98 -50q-25 -156 -32 -318q240 250 314 292q127 70 278 70q258 0 441 -221t183 -635q0 -496 -292 -815t-660 -319q-76 0 -148 18q-74 18 -138 52q-2 -130 -2 -150q0 -439 29 -486q28 -46 261 -106l68 -18v-140 q-389 22 -616 22q-232 0 -594 -22v140q221 55 268 98q46 42 52 114q14 168 14 1006q0 889 -14 962q-22 102 -132 102q-58 0 -168 -18zM850 286q82 -63 155 -94q76 -32 143 -32q166 0 250 118q134 191 134 580q0 378 -130 562q-91 130 -232 130q-116 0 -206 -93t-108 -303 q-6 -80 -6 -868z" />
<glyph unicode="q" horiz-adv-x="2134" d="M1842 1960l124 -68q-46 -189 -58 -332q-18 -230 -18 -806q0 -1078 9 -1212q9 -133 56 -182q46 -47 273 -100v-140q-406 22 -626 22q-251 0 -590 -22v140q272 62 315 108t43 208v34l2 652q-218 -188 -380 -266q-99 -46 -212 -46q-276 0 -462 221t-186 655q0 576 382 882 q286 232 648 232q133 0 247 -38q112 -37 245 -128q98 77 188 186zM1366 1070q0 293 -20 384q-32 126 -98 185q-67 59 -182 59q-147 0 -236 -122q-136 -187 -136 -544q0 -393 130 -574q97 -136 244 -136q105 0 178 73q74 74 98 215q10 58 22 460z" />
<glyph unicode="r" horiz-adv-x="1576" d="M44 1532v140q495 108 792 272l96 -54q-34 -206 -40 -462q206 322 301 394q98 74 229 74q90 0 198 -48q-62 -252 -96 -518h-136q-11 81 -52 118q-43 38 -100 38q-88 0 -166 -82q-117 -125 -164 -310q-24 -94 -24 -324q0 -402 8 -468q8 -62 44 -92t222 -72q3 -1 78 -20 v-140q-371 22 -614 22q-259 0 -576 -22v140q240 49 272 112q46 85 46 822q0 390 -30 443t-108 53q-64 0 -180 -16z" />
<glyph unicode="s" horiz-adv-x="1662" d="M174 640h180q53 -277 173 -393q121 -117 281 -117q122 0 193 65t71 159q0 87 -70 166q-70 80 -357 246q-289 168 -383 302q-98 137 -98 304q0 246 198 417t568 171q266 0 546 -120q-27 -116 -58 -502l-174 6q-42 238 -143 336t-235 98q-110 0 -171 -57t-61 -147 q0 -78 54 -142q73 -88 330 -232q322 -181 420 -314t98 -310q0 -242 -184 -444t-634 -202q-258 0 -572 92q27 367 28 618z" />
<glyph unicode="t" horiz-adv-x="1410" d="M1386 1872l26 -28q-65 -114 -114 -232q-198 21 -462 32l-6 -238l-6 -274l-6 -272q0 -382 63 -479t165 -97q79 0 252 76l72 -144q-304 -183 -402 -218q-134 -48 -256 -48q-186 0 -297 118t-111 348l8 462l16 766l-162 4q-33 0 -124 -4v148q193 68 353 222q163 157 325 456 h176q-52 -331 -60 -598q155 -4 212 -4q103 0 338 4z" />
<glyph unicode="u" horiz-adv-x="2260" d="M2242 288v-148q-284 -37 -459 -83q-171 -45 -339 -117l-94 60q24 138 36 288q-252 -233 -354 -286q-100 -52 -232 -52q-152 0 -261 55q-110 56 -163 140q-53 85 -70 223q-8 94 -8 456l2 398q0 327 -44 382t-276 74v134q456 34 786 132l92 -58q-15 -92 -26 -296 q-16 -343 -16 -622q0 -415 55 -534q55 -120 207 -120q120 0 205 76q86 77 111 232q18 98 18 630q0 311 -37 355q-38 46 -279 71v134q354 35 498 61q146 26 294 71l94 -56q-31 -184 -38 -340q-16 -257 -16 -802q0 -350 20 -398q25 -64 126 -64h22q117 4 146 4z" />
<glyph unicode="v" horiz-adv-x="2174" d="M68 1752v140q317 -22 556 -22q243 0 548 22v-140q-164 -37 -190 -58q-32 -29 -32 -68q0 -36 16 -84l296 -824l292 828q14 45 14 76q0 33 -26 61q-25 27 -140 69v140q224 -22 366 -22q148 0 340 22v-140q-186 -60 -243 -141t-339 -831l-338 -850h-166l-424 1040l-248 592 q-38 67 -75 95q-39 30 -207 95z" />
<glyph unicode="w" horiz-adv-x="3372" d="M82 1752v140q321 -22 552 -22q240 0 526 22v-140q-138 -36 -167 -62t-29 -62q0 -39 44 -162l290 -796l310 702q-96 247 -142 296q-43 46 -190 84v140l120 -6q297 -16 426 -16q53 0 528 22v-140q-150 -29 -192 -62q-32 -29 -32 -64t38 -140l278 -760l256 730 q44 126 44 166q0 30 -18 52q-26 30 -94 56q-38 18 -50 22v140q254 -22 362 -22q105 0 346 22v-140q-166 -58 -207 -96q-42 -39 -103 -198l-608 -1528h-170q-157 405 -472 1150l-514 -1150h-172l-586 1422q-91 226 -132 268q-41 43 -242 132z" />
<glyph unicode="x" horiz-adv-x="2174" d="M118 1752v140q342 -22 530 -22q180 0 536 22v-140q-112 -16 -152 -46q-26 -20 -26 -46q0 -46 198 -374q280 301 280 384q0 22 -17 37q-16 15 -119 45v140q176 -22 364 -22q192 0 364 22v-140q-124 -23 -180 -46q-41 -17 -83 -50q-43 -34 -123 -132l-328 -404l424 -710 q96 -144 184 -214q60 -46 176 -78v-140q-268 22 -502 22q-255 0 -584 -22v140q120 23 166 58q24 20 24 52q0 30 -14 66q-47 98 -184 322l-70 120q-388 -455 -388 -512q0 -26 28 -48q46 -34 184 -58v-140q-282 22 -398 22q-128 0 -386 -22v140q99 6 150 34q71 41 174 160 l486 582q-383 651 -465 737t-249 121z" />
<glyph unicode="y" horiz-adv-x="2048" d="M2 1752v140q356 -22 562 -22q214 0 544 22v-140q-37 -7 -48 -8q-120 -19 -150 -43q-28 -22 -28 -59q0 -30 42 -132l300 -748l238 704q38 116 38 170q0 33 -26 59q-25 25 -136 57v140q223 -22 374 -22q162 0 328 22v-140q-151 -48 -194 -84q-44 -36 -93 -145 q-44 -98 -305 -807q-324 -885 -418 -1080q-136 -280 -294 -388t-322 -108q-69 0 -182 22q-43 162 -70 231q-28 71 -96 211l112 72q102 -95 172 -126q72 -32 144 -32q132 0 239 96t231 444l-570 1290q-106 244 -160 293q-54 50 -232 111z" />
<glyph unicode="z" horiz-adv-x="1962" d="M410 1262h-170q28 222 36 630q406 -22 776 -22q385 0 772 22v-162q-75 -103 -688 -1012l-332 -494h116q397 0 475 20q77 20 116 78q40 60 89 324h184q-21 -241 -26 -668q-447 22 -812 22q-362 0 -830 -22v154q301 418 1024 1504q-90 -2 -106 -2q-331 0 -407 -17 q-73 -16 -109 -63q-54 -71 -108 -292z" />
<glyph unicode="{" horiz-adv-x="1622" d="M1440 2774v-90q-201 -38 -295 -141q-95 -104 -95 -237q0 -130 48 -330t48 -342q0 -144 -82 -286q-83 -143 -236 -240q-110 -69 -334 -130q243 -78 354 -152q152 -103 227 -240q75 -138 75 -272q0 -112 -49 -312t-49 -340q0 -150 90 -253q89 -102 298 -143v-94 q-186 0 -268 22q-145 36 -275 125q-129 89 -206 221q-77 133 -77 276q0 126 62 368q46 177 46 310q0 165 -98 277t-294 143v122q193 31 293 148q99 116 99 288q0 129 -44 300q-62 240 -62 356q0 134 77 268t195 218q117 83 258 124q108 30 294 36z" />
<glyph unicode="|" horiz-adv-x="2306" d="M966 2852h372v-3406h-372v3406z" />
<glyph unicode="}" horiz-adv-x="1622" d="M182 -828v92q198 38 294 141t96 235t-48 332t-48 342q0 144 82 286q83 143 236 240q105 69 334 130q-246 78 -356 152q-149 101 -226 240q-76 137 -76 272q0 112 49 312t49 340q0 149 -89 252q-89 102 -297 144v92q181 0 266 -20q147 -36 277 -125t206 -222 q77 -134 77 -275q0 -126 -62 -368q-46 -177 -46 -310q0 -165 98 -277t294 -143v-122q-193 -31 -293 -148q-99 -116 -99 -288q0 -129 44 -300q60 -238 60 -356q0 -136 -76 -269t-194 -218q-119 -86 -260 -123q-109 -31 -292 -38z" />
<glyph unicode="~" d="M2338 1688h126q-13 -340 -172 -514q-157 -172 -390 -172q-108 0 -233 35q-123 35 -519 201q-284 120 -412 120q-136 0 -225 -83t-119 -271h-128q18 353 170 520q151 166 372 166q116 0 222 -30q196 -53 546 -206q184 -79 288 -110q58 -16 128 -16q137 0 232 92 q94 91 114 268z" />
<glyph unicode="&#xa1;" horiz-adv-x="1410" d="M710 2086q147 0 251 -104q103 -103 103 -250t-104 -251q-103 -103 -250 -103q-149 0 -252 103q-104 104 -104 251q0 146 104 250t252 104zM434 -858l-98 76q112 609 286 1984h186q151 -1256 250 -1840q-379 -118 -624 -220z" />
<glyph unicode="&#xa2;" horiz-adv-x="1922" d="M986 2858h234v-464h78h5q250 0 571 -142q-78 -307 -114 -578l-186 12q-17 273 -112 392q-72 90 -242 110v-1414q84 -12 120 -12q86 0 182 33q99 34 254 127l98 -148q-258 -209 -393 -286q-143 -81 -261 -112v-454h-234v454q-231 25 -400 134q-168 108 -264 324t-96 470 q0 417 242 722q187 237 518 346v486zM986 2136q-122 -106 -162 -198q-84 -192 -84 -436q0 -231 80 -408q54 -113 166 -210v1252z" />
<glyph unicode="&#xa3;" horiz-adv-x="2220" d="M1870 2182l-154 34q0 209 -52 300q-79 142 -252 142q-142 0 -237 -110t-95 -320q0 -130 34 -380q22 -167 28 -256q49 0 92.5 -0.5t63.5 -1t22 -0.5q166 0 370 24l26 -42q-69 -118 -122 -232q-204 21 -422 26q8 -141 8 -230q0 -242 -93 -406t-383 -392q200 111 297 143 q99 33 179 33q104 0 318 -84q149 -58 204 -58q140 0 346 204l130 -120q-245 -331 -378 -428q-134 -98 -250 -98q-134 0 -397 99t-381 99q-90 0 -211 -42t-321 -156l-114 188q315 217 416 388q102 172 102 452q0 119 -26 408q-201 0 -398 -26l-26 42q64 104 112 218 q160 -7 284 -8q-46 233 -46 406q0 381 256 622q257 242 672 242q350 0 636 -226q-143 -226 -238 -454z" />
<glyph unicode="&#xa4;" horiz-adv-x="2818" d="M1878 2106l260 262l242 -248l-258 -260q158 -248 158 -522q0 -266 -158 -514l258 -256l-242 -246l-260 256q-124 -80 -255 -120q-129 -40 -271 -40q-134 0 -261 40q-128 40 -253 120l-256 -256l-248 246l260 256q-160 245 -160 520q0 267 160 518l-260 258l242 248 l262 -262q128 80 258 120q129 40 262 40q135 0 264 -40q130 -40 256 -120zM1934 1342q0 238 -169 407t-407 169q-240 0 -409 -169t-169 -407q0 -240 169 -409t409 -169q238 0 407 169t169 409z" />
<glyph unicode="&#xa5;" horiz-adv-x="3072" d="M1320 2182h798l180 334q12 24 12 40q0 28 -29 48q-30 21 -267 64v148l98 -6q321 -16 446 -16q133 0 522 22v-148q-225 -42 -303 -80q-77 -38 -131 -101q-51 -60 -202 -305h514v-220h-650l-236 -390h886v-220h-1020l-88 -146v-720q2 -174 21 -216q20 -43 73 -68 q33 -16 288 -64l66 -12v-148q-532 22 -744 22q-158 0 -768 -22v148q53 10 96 16q216 32 276 66q39 22 59 73q19 50 19 295v590l-120 186h-994v220h856l-244 390h-612v220h474q-193 307 -276 371q-86 66 -318 115v148l394 -14q286 -8 320 -8q208 0 718 22v-148 q-230 -53 -263 -79q-35 -27 -35 -57t30 -82zM1444 1962l230 -398l54 -90l268 488h-552z" />
<glyph unicode="&#xa6;" horiz-adv-x="2306" d="M966 2852h372v-1458h-372v1458zM966 902h372v-1456h-372v1456z" />
<glyph unicode="&#xa7;" horiz-adv-x="1922" d="M1478 2194l-168 52q12 106 12 170q0 142 -85 224t-223 82q-128 0 -208 -74t-80 -178q0 -81 64 -166q64 -88 425 -383q362 -296 466 -464q105 -169 105 -349q0 -197 -107 -372q-106 -173 -391 -392q227 -186 300 -307q74 -122 74 -259q0 -165 -92 -319q-92 -153 -268 -236 q-177 -83 -392 -83q-197 0 -371 64t-329 192q118 199 170 304q56 112 90 174l148 -60q-18 -108 -18 -166q0 -139 88 -224q89 -86 228 -86q121 0 197 71q75 71 75 175q0 84 -63 173q-64 90 -313 297q-447 372 -560 547q-114 177 -114 373q0 209 127 390q128 182 379 354 q-218 182 -297 312t-79 256q0 256 200 444t530 188q208 0 412 -74q128 -47 296 -168q-151 -277 -228 -482zM1138 468q105 104 151 195q47 94 47 201q0 140 -84 266q-126 194 -458 462q-208 -186 -208 -398q0 -96 46 -192q47 -98 150 -206z" />
<glyph unicode="&#xa8;" horiz-adv-x="1364" d="M1042 2758q108 0 184 -76t76 -184q0 -109 -76 -185q-77 -77 -184 -77q-109 0 -186 77q-76 76 -76 185q0 108 76 184t186 76zM322 2758q109 0 186 -77q76 -76 76 -185q0 -107 -77 -184q-76 -76 -185 -76q-108 0 -184 76t-76 184q0 109 76 185q77 77 184 77z" />
<glyph unicode="&#xa9;" horiz-adv-x="3072" d="M1536 2774q358 0 698 -183t531 -524t191 -711q0 -368 -188 -706q-187 -337 -526 -525q-337 -187 -706 -187q-368 0 -705 187t-525 525t-188 706q0 370 191 711t531 524t696 183zM1536 2596q-313 0 -609 -160q-298 -161 -464 -459q-167 -299 -167 -621q0 -321 164 -617 q163 -295 460 -459q296 -164 616 -164q321 0 617 164q295 164 459 459q164 296 164 617q0 323 -166 621q-167 299 -463 459t-611 160zM2206 2212v-528h-76q-40 202 -175 317q-134 115 -317 115q-220 0 -368 -175t-148 -553q0 -404 145 -576t361 -172q296 0 522 276v-140 q-242 -254 -636 -254q-376 0 -609 227t-233 587q0 383 250 630q251 248 630 248q171 0 394 -80q64 -24 92 -24q36 0 61 24q25 23 31 78h76z" />
<glyph unicode="&#xaa;" horiz-adv-x="1450" d="M372 2436l-158 14q39 179 50 316q246 110 508 110q227 0 322 -92q94 -91 94 -322v-46q-6 -218 -6 -352q0 -108 18 -140q13 -22 38 -22q31 0 128 52l66 -94q-190 -122 -264 -153q-72 -31 -134 -31q-78 0 -134 35t-80 95q-120 -81 -189 -106q-67 -24 -149 -24 q-156 0 -245 87t-89 225q0 88 42 159t136 129q49 31 278 126l206 84q-1 131 -40 176q-38 44 -116 44q-84 0 -147 -54t-135 -216zM812 2328q-178 -78 -226 -132t-48 -140q0 -91 34 -132q34 -42 86 -42q76 0 115 55t39 283v108z" />
<glyph unicode="&#xab;" horiz-adv-x="1922" d="M802 1668h204l-362 -748l362 -742h-204q-49 56 -688 742q497 527 688 748zM1608 1668h202l-354 -748l354 -742h-202l-384 422l-306 320q192 197 690 748z" />
<glyph unicode="&#xac;" d="M260 2024h2210v-1344h-368l-2 974h-1840v370z" />
<glyph unicode="&#xad;" horiz-adv-x="1450" d="M158 702l-50 56q82 218 124 414q205 -14 436 -14q361 0 616 14l46 -60q-76 -194 -130 -410q-308 12 -662 12q-224 0 -380 -12z" />
<glyph unicode="&#xae;" horiz-adv-x="3072" d="M1536 2774q358 0 698 -183t531 -524t191 -711q0 -368 -188 -706q-187 -337 -526 -525q-337 -187 -706 -187q-368 0 -705 187t-525 525t-188 706q0 370 191 711t531 524t696 183zM1536 2596q-313 0 -609 -160q-298 -161 -464 -459q-167 -299 -167 -621q0 -321 164 -617 q163 -295 460 -459q296 -164 616 -164q321 0 617 164q295 164 459 459q164 296 164 617q0 323 -166 621q-167 299 -463 459t-611 160zM778 2180h724q366 0 508 -88q202 -126 202 -350q0 -141 -89 -253q-89 -111 -269 -161l274 -500q60 -109 124 -162q30 -25 86 -36v-68h-484 l-410 736h-92v-396q0 -170 45 -218t195 -54v-68h-846v68q124 0 160 42q50 59 50 230v944q0 163 -35 209q-34 45 -143 57v68zM1352 1400q64 -10 112 -10q132 0 225 98t93 262q0 168 -87 255t-267 87h-76v-692z" />
<glyph unicode="&#xaf;" horiz-adv-x="2048" d="M-38 3286h2124v-260h-2124v260z" />
<glyph unicode="&#xb0;" horiz-adv-x="1622" d="M810 2768q288 0 490 -202t202 -490q0 -286 -203 -489t-489 -203t-489 203t-203 489q0 288 202 490t490 202zM810 2508q-180 0 -305 -126q-125 -127 -125 -304q0 -178 126 -304t304 -126t304 126t126 304t-126 304t-304 126z" />
<glyph unicode="&#xb1;" d="M260 1876h918v922h370v-922h922v-368h-922v-918h-370v918h-918v368zM260 262h2210v-370h-2210v370z" />
<glyph unicode="&#xb2;" horiz-adv-x="1410" d="M306 2342h-130q67 183 92 386q91 73 194 111q101 37 216 37q228 0 356 -111t128 -273q0 -113 -55 -227q-55 -115 -187 -257q-76 -84 -390 -360l278 -2q191 0 226 19q37 20 104 135h126q-61 -141 -130 -334q-36 -102 -46 -128q-291 14 -486 14q-180 0 -518 -14v112 q344 334 475 480q127 142 199 296q42 86 42 164q0 89 -58 147q-59 59 -148 59q-82 0 -159 -60q-76 -60 -129 -194z" />
<glyph unicode="&#xb3;" horiz-adv-x="1410" d="M386 2442h-132q44 174 68 326q108 49 208 75q96 25 184 25q189 0 290 -86q100 -85 100 -212q0 -97 -64 -183t-168 -133q143 -25 214 -90q122 -108 122 -290q0 -236 -186 -401t-514 -165q-168 0 -354 66q43 195 62 388h122q12 -158 74 -223t160 -65q99 0 167 77 q67 76 67 217q0 136 -78 216t-198 80q-34 0 -90 -10v124q194 53 267 127t73 159q0 72 -48 119q-49 47 -124 47q-68 0 -124 -47t-98 -141z" />
<glyph unicode="&#xb4;" horiz-adv-x="1364" d="M1174 2848l26 -52q-308 -300 -604 -642h-176l238 694q213 -8 266 -8q63 0 250 8z" />
<glyph unicode="&#xb5;" horiz-adv-x="2260" d="M256 1870h556v-1368q1 -178 44 -231q42 -53 126 -53q90 0 172 61q83 62 156 181v1410h556v-1250l2 -88q0 -180 32 -224q47 -62 102 -62q48 0 84 48q53 71 70 240h86q-7 -281 -156 -436q-148 -154 -360 -154q-147 0 -248 76q-103 77 -152 238q-150 -166 -288 -240 q-139 -74 -294 -74q-80 0 -140 21q-62 22 -158 91q0 -119 11 -193q9 -63 58 -242q47 -173 47 -237q0 -125 -65 -196q-64 -70 -171 -70q-102 0 -159 61t-57 179q0 82 48 270q65 251 81 395q17 150 17 495v1352z" />
<glyph unicode="&#xb6;" horiz-adv-x="2220" d="M1278 2560v-3444h-200v1742q-373 17 -603 124q-230 108 -352 329q-121 220 -121 495q0 315 164 539q163 223 384 295q220 72 788 72h880v-88h-88q-129 0 -190 -43q-62 -44 -86 -115q-14 -48 -14 -248v-3102h-198v3444h-364z" />
<glyph unicode="&#xb8;" horiz-adv-x="1364" d="M606 22h162q-60 -107 -136 -208q86 0 143 -61t57 -157q0 -154 -124 -248q-163 -124 -496 -124q-53 0 -128 4v148h12q229 0 318 58q62 41 62 106q0 35 -20 57q-20 21 -52 21q-18 0 -68 -8l-28 90q86 66 130 113q50 54 168 209z" />
<glyph unicode="&#xb9;" horiz-adv-x="1410" d="M290 2546v98q325 96 572 224l64 -38q-15 -132 -22 -323q-8 -219 -8 -497q0 -437 14 -476q19 -53 168 -76q12 -1 54 -8v-110q-316 14 -410 14q-67 0 -414 -14v110q200 36 221 76t21 774q0 196 -24 236q-18 28 -66 28q-56 0 -170 -18z" />
<glyph unicode="&#xba;" horiz-adv-x="1536" d="M108 2276q0 261 181 430q182 170 495 170q305 0 474 -161q168 -161 168 -425q0 -284 -183 -461t-503 -177q-293 0 -463 167q-169 166 -169 457zM544 2340q0 -313 92 -456q56 -86 150 -86q86 0 134 72q70 100 70 340q0 304 -88 440q-56 84 -152 84q-91 0 -140 -70 q-66 -94 -66 -324z" />
<glyph unicode="&#xbb;" horiz-adv-x="1922" d="M1118 178h-204l360 746l-360 744h204q61 -72 686 -744q-511 -541 -686 -746zM312 178h-204l356 746l-356 744h204l382 -422l306 -322q-191 -196 -688 -746z" />
<glyph unicode="&#xbc;" horiz-adv-x="3372" d="M308 2546v98q325 96 572 224l64 -38q-15 -132 -22 -323q-8 -219 -8 -497q0 -437 14 -476q19 -53 168 -76q12 -1 54 -8v-110q-316 14 -410 14q-67 0 -414 -14v110q200 36 221 76t21 774q0 196 -24 236q-18 28 -66 28q-56 0 -170 -18zM2340 2840h300l-1610 -3024h-300z M2378 -140v110q83 18 119 25q83 16 101 29q21 16 32 46q10 29 10 164q-403 -1 -652 -14q2 122 2 138q0 14 -2 132l496 580q62 74 156 198q104 35 152 57t142 85l62 -44q-30 -352 -30 -908q117 6 234 32l32 -46q-57 -98 -98 -216q-84 6 -168 6q0 -143 10 -166q12 -34 52 -56 q29 -17 172 -42v-110q-274 14 -414 14q-133 0 -408 -14zM2640 458v540l-444 -540h444z" />
<glyph unicode="&#xbd;" horiz-adv-x="3372" d="M310 2546v98q325 96 572 224l64 -38q-15 -132 -22 -323q-8 -219 -8 -497q0 -437 14 -476q19 -53 168 -76q12 -1 54 -8v-110q-316 14 -410 14q-67 0 -414 -14v110q200 36 221 76t21 774q0 196 -24 236q-18 28 -66 28q-56 0 -170 -18zM2318 2862h300l-1610 -3024h-300z M2232 812h-130q67 183 92 386q91 73 194 111q101 37 216 37q228 0 356 -111t128 -273q0 -113 -55 -227q-55 -115 -187 -257q-76 -84 -390 -360l278 -2q191 0 226 19q37 20 104 135h126q-61 -141 -130 -334q-36 -102 -46 -128q-291 14 -486 14q-180 0 -518 -14v112 q344 334 475 480q127 142 199 296q42 86 42 164q0 89 -58 147q-59 59 -148 59q-82 0 -159 -60q-76 -60 -129 -194z" />
<glyph unicode="&#xbe;" horiz-adv-x="3372" d="M422 2442h-132q44 174 68 326q108 49 208 75q96 25 184 25q189 0 290 -86q100 -85 100 -212q0 -97 -64 -183t-168 -133q143 -25 214 -90q122 -108 122 -290q0 -236 -186 -401t-514 -165q-168 0 -354 66q43 195 62 388h122q12 -158 74 -223t160 -65q99 0 167 77 q67 76 67 217q0 136 -78 216t-198 80q-34 0 -90 -10v124q194 53 267 127t73 159q0 72 -48 119q-49 47 -124 47q-68 0 -124 -47t-98 -141zM2318 2862h300l-1610 -3024h-300zM2358 -140v110q83 18 119 25q83 16 101 29q21 16 32 46q10 29 10 164q-403 -1 -652 -14q2 122 2 138 q0 14 -2 132l496 580q62 74 156 198q104 35 152 57t142 85l62 -44q-30 -352 -30 -908q117 6 234 32l32 -46q-57 -98 -98 -216q-84 6 -168 6q0 -143 10 -166q12 -34 52 -56q29 -17 172 -42v-110q-274 14 -414 14q-133 0 -408 -14zM2620 458v540l-444 -540h444z" />
<glyph unicode="&#xbf;" horiz-adv-x="1662" d="M938 2086q147 0 251 -104q103 -103 103 -252q0 -148 -104 -252t-250 -104q-148 0 -252 104t-104 252q0 149 103 252q104 104 253 104zM1404 -90h170q-72 -330 -90 -608q-386 -162 -652 -162q-351 0 -520 184q-170 185 -170 426q0 106 35 211q35 103 123 237 q40 65 229 303q185 234 203 263q38 57 74 160q34 97 60 278h202q-6 -261 -54 -448q-49 -190 -198 -508q-114 -244 -114 -378q0 -144 87 -233t221 -89q128 0 219 72t175 292z" />
<glyph unicode="&#xc0;" horiz-adv-x="3198" d="M1784 -22v148q243 44 280 72q38 29 38 76q0 28 -12 64q-23 61 -208 504q-282 6 -470 6q-154 0 -514 -6q-222 -524 -222 -574q0 -48 32 -71t284 -71v-148q-246 22 -482 22q-253 0 -504 -22v148q180 37 248 86q46 32 84 96q77 124 466 976l702 1592h162q184 -465 770 -1754 q326 -718 388 -812q43 -66 88 -96q42 -27 278 -88v-148q-346 22 -658 22q-310 0 -750 -22zM1400 2014l-408 -942l396 -2q54 0 408 2zM1872 3010h-176q-332 386 -598 652l32 48q154 -8 240 -8q61 0 272 8q50 -170 84 -272z" />
<glyph unicode="&#xc1;" horiz-adv-x="3198" d="M1784 -22v148q243 44 280 72q38 29 38 76q0 28 -12 64q-23 61 -208 504q-282 6 -470 6q-154 0 -514 -6q-222 -524 -222 -574q0 -48 32 -71t284 -71v-148q-246 22 -482 22q-253 0 -504 -22v148q180 37 248 86q46 32 84 96q77 124 466 976l702 1592h162q184 -465 770 -1754 q326 -718 388 -812q43 -66 88 -96q42 -27 278 -88v-148q-346 22 -658 22q-310 0 -750 -22zM1400 2014l-408 -942l396 -2q54 0 408 2zM2092 3704l26 -52q-308 -300 -604 -642h-176l238 694q213 -8 266 -8q63 0 250 8z" />
<glyph unicode="&#xc2;" horiz-adv-x="3198" d="M1784 -22v148q243 44 280 72q38 29 38 76q0 28 -12 64q-23 61 -208 504q-282 6 -470 6q-154 0 -514 -6q-222 -524 -222 -574q0 -48 32 -71t284 -71v-148q-246 22 -482 22q-253 0 -504 -22v148q180 37 248 86q46 32 84 96q77 124 466 976l702 1592h162q184 -465 770 -1754 q326 -718 388 -812q43 -66 88 -96q42 -27 278 -88v-148q-346 22 -658 22q-310 0 -750 -22zM1400 2014l-408 -942l396 -2q54 0 408 2zM2232 3038h-208q-189 153 -442 334q-304 -239 -414 -334h-200q270 401 418 640l222 -2q26 0 228 2q89 -172 396 -640z" />
<glyph unicode="&#xc3;" horiz-adv-x="3198" d="M1784 -22v148q243 44 280 72q38 29 38 76q0 28 -12 64q-23 61 -208 504q-282 6 -470 6q-154 0 -514 -6q-222 -524 -222 -574q0 -48 32 -71t284 -71v-148q-246 22 -482 22q-253 0 -504 -22v148q180 37 248 86q46 32 84 96q77 124 466 976l702 1592h162q184 -465 770 -1754 q326 -718 388 -812q43 -66 88 -96q42 -27 278 -88v-148q-346 22 -658 22q-310 0 -750 -22zM1400 2014l-408 -942l396 -2q54 0 408 2zM2122 3610h178q-67 -299 -190 -428q-90 -94 -210 -94q-96 0 -339 95t-305 95q-46 0 -89 -37q-42 -36 -89 -153h-176q65 292 190 424 q92 98 202 98q59 0 122 -16q67 -17 265 -97q201 -81 277 -81q47 0 84 32t80 162z" />
<glyph unicode="&#xc4;" horiz-adv-x="3198" d="M1784 -22v148q243 44 280 72q38 29 38 76q0 28 -12 64q-23 61 -208 504q-282 6 -470 6q-154 0 -514 -6q-222 -524 -222 -574q0 -48 32 -71t284 -71v-148q-246 22 -482 22q-253 0 -504 -22v148q180 37 248 86q46 32 84 96q77 124 466 976l702 1592h162q184 -465 770 -1754 q326 -718 388 -812q43 -66 88 -96q42 -27 278 -88v-148q-346 22 -658 22q-310 0 -750 -22zM1400 2014l-408 -942l396 -2q54 0 408 2zM1960 3614q108 0 184 -76t76 -184q0 -109 -76 -185q-77 -77 -184 -77q-109 0 -186 77q-76 76 -76 185q0 108 76 184t186 76zM1240 3614 q109 0 186 -77q76 -76 76 -185q0 -107 -77 -184q-76 -76 -185 -76q-108 0 -184 76t-76 184q0 109 76 185q77 77 184 77z" />
<glyph unicode="&#xc5;" horiz-adv-x="3198" d="M1784 -22v148q243 44 280 72q38 29 38 76q0 28 -12 64q-23 61 -208 504q-282 6 -470 6q-154 0 -514 -6q-222 -524 -222 -574q0 -48 32 -71t284 -71v-148q-246 22 -482 22q-253 0 -504 -22v148q180 37 248 86q46 32 84 96q77 124 466 976l702 1592h162q184 -465 770 -1754 q326 -718 388 -812q43 -66 88 -96q42 -27 278 -88v-148q-346 22 -658 22q-310 0 -750 -22zM1400 2014l-408 -942l396 -2q54 0 408 2zM1594 3562q178 0 304 -126t126 -306q0 -178 -126 -304t-304 -126q-180 0 -306 126t-126 304q0 180 126 306t306 126zM1594 3336 q-86 0 -146 -61t-60 -145q0 -86 60 -147t146 -61t146 61t60 147q0 84 -60 145t-146 61z" />
<glyph unicode="&#xc6;" horiz-adv-x="4436" d="M1444 2668v148q676 -22 1090 -22q919 0 1604 22q-2 -74 -2 -86q0 -275 46 -636h-164q-130 372 -184 424q-53 52 -226 52h-790q-19 -383 -20 -994h450q180 0 222 46q86 86 138 360h166q-20 -537 -20 -556q0 -172 20 -486h-166q-18 94 -20 106q-36 208 -90 256t-256 48 h-444v-1116h766q153 0 209 19q59 20 101 61q85 87 254 366l56 88h182q-133 -387 -182 -546l-78 -244l-284 8l-314 4q-590 10 -702 10q-224 0 -1064 -22v148q296 48 368 84q51 23 68 66q20 57 20 336v340h-1052l-414 -618q-26 -44 -26 -72q0 -39 28 -58q49 -36 278 -78v-148 q-339 22 -510 22q-111 0 -544 -22v148q188 24 271 80q82 55 207 230l786 1124l622 912q20 35 20 62q0 23 -22 36q-33 21 -398 98zM2198 1174v1382l-914 -1382h914z" />
<glyph unicode="&#xc7;" horiz-adv-x="3112" d="M2782 528l102 -192q-348 -229 -639 -323q-294 -95 -613 -95q-677 0 -1063 385q-387 385 -387 1037q0 693 436 1114q437 422 1206 422q246 0 475 -39q233 -40 567 -145q-12 -130 -12 -270q0 -242 30 -592h-220q-100 384 -132 450q-74 151 -243 254q-170 104 -457 104 q-438 0 -676 -268q-288 -322 -288 -890q0 -587 287 -895q286 -307 773 -307q433 0 854 250zM1520 22h162q-60 -107 -136 -208q86 0 143 -61t57 -157q0 -154 -124 -248q-163 -124 -496 -124q-53 0 -128 4v148h12q229 0 318 58q62 41 62 106q0 35 -20 57q-20 21 -52 21 q-18 0 -68 -8l-28 90q86 66 130 113q50 54 168 209z" />
<glyph unicode="&#xc8;" d="M32 2668v148q482 -24 1048 -24q656 0 1352 24q6 -415 50 -730h-170q-23 62 -34 98q-97 284 -154 332q-55 46 -252 46h-764q-15 -313 -20 -982l348 -4q271 0 335 53q62 52 133 357h166q-22 -287 -22 -518q0 -222 22 -534h-166q-56 324 -108 372t-314 48h-392v-1118h796 q134 0 176 16q68 25 128 92q123 135 286 424h176q-122 -347 -250 -790q-667 22 -1426 22q-351 0 -944 -22v148q332 60 380 96q66 46 66 232v68l4 792v640l-2 296q0 215 -22 266q-22 52 -85 82q-61 29 -341 70zM1636 3010h-176q-332 386 -598 652l32 48q154 -8 240 -8 q61 0 272 8q50 -170 84 -272z" />
<glyph unicode="&#xc9;" d="M32 2668v148q482 -24 1048 -24q656 0 1352 24q6 -415 50 -730h-170q-23 62 -34 98q-97 284 -154 332q-55 46 -252 46h-764q-15 -313 -20 -982l348 -4q271 0 335 53q62 52 133 357h166q-22 -287 -22 -518q0 -222 22 -534h-166q-56 324 -108 372t-314 48h-392v-1118h796 q134 0 176 16q68 25 128 92q123 135 286 424h176q-122 -347 -250 -790q-667 22 -1426 22q-351 0 -944 -22v148q332 60 380 96q66 46 66 232v68l4 792v640l-2 296q0 215 -22 266q-22 52 -85 82q-61 29 -341 70zM1856 3704l26 -52q-308 -300 -604 -642h-176l238 694 q213 -8 266 -8q63 0 250 8z" />
<glyph unicode="&#xca;" d="M32 2668v148q482 -24 1048 -24q656 0 1352 24q6 -415 50 -730h-170q-23 62 -34 98q-97 284 -154 332q-55 46 -252 46h-764q-15 -313 -20 -982l348 -4q271 0 335 53q62 52 133 357h166q-22 -287 -22 -518q0 -222 22 -534h-166q-56 324 -108 372t-314 48h-392v-1118h796 q134 0 176 16q68 25 128 92q123 135 286 424h176q-122 -347 -250 -790q-667 22 -1426 22q-351 0 -944 -22v148q332 60 380 96q66 46 66 232v68l4 792v640l-2 296q0 215 -22 266q-22 52 -85 82q-61 29 -341 70zM1996 3038h-208q-189 153 -442 334q-304 -239 -414 -334h-200 q270 401 418 640l222 -2q26 0 228 2q89 -172 396 -640z" />
<glyph unicode="&#xcb;" d="M32 2668v148q482 -24 1048 -24q656 0 1352 24q6 -415 50 -730h-170q-23 62 -34 98q-97 284 -154 332q-55 46 -252 46h-764q-15 -313 -20 -982l348 -4q271 0 335 53q62 52 133 357h166q-22 -287 -22 -518q0 -222 22 -534h-166q-56 324 -108 372t-314 48h-392v-1118h796 q134 0 176 16q68 25 128 92q123 135 286 424h176q-122 -347 -250 -790q-667 22 -1426 22q-351 0 -944 -22v148q332 60 380 96q66 46 66 232v68l4 792v640l-2 296q0 215 -22 266q-22 52 -85 82q-61 29 -341 70zM1724 3614q108 0 184 -76t76 -184q0 -109 -76 -185 q-77 -77 -184 -77q-109 0 -186 77q-76 76 -76 185q0 108 76 184t186 76zM1004 3614q109 0 186 -77q76 -76 76 -185q0 -107 -77 -184q-76 -76 -185 -76q-108 0 -184 76t-76 184q0 109 76 185q77 77 184 77z" />
<glyph unicode="&#xcc;" horiz-adv-x="1576" d="M1546 2816v-148l-74 -10q-266 -32 -319 -80t-53 -186v-72l-4 -670l2 -766l2 -390q0 -171 17 -216q16 -43 59 -66q73 -38 296 -74l74 -12v-148q-400 22 -722 22q-307 0 -784 -22v148q314 59 342 70q46 18 70 52q31 47 32 188q4 295 4 1130l-6 728v60q0 160 -46 206 q-47 47 -310 90l-86 18v148q503 -22 770 -22q284 0 736 22zM1060 3010h-176q-332 386 -598 652l32 48q154 -8 240 -8q61 0 272 8q50 -170 84 -272z" />
<glyph unicode="&#xcd;" horiz-adv-x="1576" d="M1546 2816v-148l-74 -10q-266 -32 -319 -80t-53 -186v-72l-4 -670l2 -766l2 -390q0 -171 17 -216q16 -43 59 -66q73 -38 296 -74l74 -12v-148q-400 22 -722 22q-307 0 -784 -22v148q314 59 342 70q46 18 70 52q31 47 32 188q4 295 4 1130l-6 728v60q0 160 -46 206 q-47 47 -310 90l-86 18v148q503 -22 770 -22q284 0 736 22zM1280 3704l26 -52q-308 -300 -604 -642h-176l238 694q213 -8 266 -8q63 0 250 8z" />
<glyph unicode="&#xce;" horiz-adv-x="1576" d="M1546 2816v-148l-74 -10q-266 -32 -319 -80t-53 -186v-72l-4 -670l2 -766l2 -390q0 -171 17 -216q16 -43 59 -66q73 -38 296 -74l74 -12v-148q-400 22 -722 22q-307 0 -784 -22v148q314 59 342 70q46 18 70 52q31 47 32 188q4 295 4 1130l-6 728v60q0 160 -46 206 q-47 47 -310 90l-86 18v148q503 -22 770 -22q284 0 736 22zM1420 3038h-208q-189 153 -442 334q-304 -239 -414 -334h-200q270 401 418 640l222 -2q26 0 228 2q89 -172 396 -640z" />
<glyph unicode="&#xcf;" horiz-adv-x="1576" d="M1546 2816v-148l-74 -10q-266 -32 -319 -80t-53 -186v-72l-4 -670l2 -766l2 -390q0 -171 17 -216q16 -43 59 -66q73 -38 296 -74l74 -12v-148q-400 22 -722 22q-307 0 -784 -22v148q314 59 342 70q46 18 70 52q31 47 32 188q4 295 4 1130l-6 728v60q0 160 -46 206 q-47 47 -310 90l-86 18v148q503 -22 770 -22q284 0 736 22zM1148 3614q108 0 184 -76t76 -184q0 -109 -76 -185q-77 -77 -184 -77q-109 0 -186 77q-76 76 -76 185q0 108 76 184t186 76zM428 3614q109 0 186 -77q76 -76 76 -185q0 -107 -77 -184q-76 -76 -185 -76 q-108 0 -184 76t-76 184q0 109 76 185q77 77 184 77z" />
<glyph unicode="&#xd0;" horiz-adv-x="3372" d="M500 1354h-452v226h452l-4 612q-6 280 -20 322q-13 38 -52 65q-35 24 -292 71l-84 18v148q456 -22 770 -22q232 0 642 12q284 10 498 10q376 0 596 -96q305 -132 477 -406q173 -275 173 -710q0 -485 -226 -861q-227 -378 -636 -589q-341 -178 -830 -178q-59 0 -372 13 t-366 13q-140 0 -726 -24v148l84 16q263 47 307 86q45 40 52 115t9 1011zM1104 1354q8 -760 18 -1110q239 -40 406 -40q460 0 694 272q298 347 298 1010q0 568 -264 862q-214 240 -670 240q-189 0 -464 -38q-14 -221 -18 -970h882v-226h-882z" />
<glyph unicode="&#xd1;" horiz-adv-x="3284" d="M12 2668v148q268 -22 510 -22q245 0 560 22q241 -324 1468 -1814l-8 1088q-11 399 -31 443q-21 44 -69 70q-45 24 -338 65v148q315 -22 562 -22q240 0 592 22v-148q-49 -10 -92 -16q-236 -36 -282 -79t-54 -177q-20 -288 -20 -1152q0 -576 22 -1280q-94 -28 -186 -66 l-758 956l-1156 1406l6 -950l16 -924q6 -103 20 -131q13 -25 40 -43q46 -27 284 -70q37 -6 84 -16v-148q-336 22 -552 22q-187 0 -604 -22v148l94 18q232 36 274 70q28 22 40 63q13 42 26 595q22 785 22 1376q0 192 -21 246t-75 84q-53 29 -274 70zM2164 3610h178 q-67 -299 -190 -428q-90 -94 -210 -94q-96 0 -339 95t-305 95q-46 0 -89 -37q-42 -36 -89 -153h-176q65 292 190 424q92 98 202 98q59 0 122 -16q67 -17 265 -97q201 -81 277 -81q47 0 84 32t80 162z" />
<glyph unicode="&#xd2;" horiz-adv-x="3330" d="M174 1352q0 687 421 1105q422 419 1129 419q667 0 1049 -377q381 -377 381 -1009q0 -402 -150 -732q-119 -263 -305 -442q-187 -180 -383 -268q-291 -130 -704 -130q-684 0 -1061 378q-377 379 -377 1056zM866 1460q0 -728 264 -1070q196 -256 562 -256q253 0 425 130 q174 131 259 417q86 288 86 667q0 293 -52 556q-53 267 -142 416q-91 151 -241 242q-152 92 -365 92q-239 0 -424 -133q-186 -134 -279 -418q-93 -285 -93 -643zM1936 3010h-176q-332 386 -598 652l32 48q154 -8 240 -8q61 0 272 8q50 -170 84 -272z" />
<glyph unicode="&#xd3;" horiz-adv-x="3330" d="M174 1352q0 687 421 1105q422 419 1129 419q667 0 1049 -377q381 -377 381 -1009q0 -402 -150 -732q-119 -263 -305 -442q-187 -180 -383 -268q-291 -130 -704 -130q-684 0 -1061 378q-377 379 -377 1056zM866 1460q0 -728 264 -1070q196 -256 562 -256q253 0 425 130 q174 131 259 417q86 288 86 667q0 293 -52 556q-53 267 -142 416q-91 151 -241 242q-152 92 -365 92q-239 0 -424 -133q-186 -134 -279 -418q-93 -285 -93 -643zM2156 3704l26 -52q-308 -300 -604 -642h-176l238 694q213 -8 266 -8q63 0 250 8z" />
<glyph unicode="&#xd4;" horiz-adv-x="3330" d="M174 1352q0 687 421 1105q422 419 1129 419q667 0 1049 -377q381 -377 381 -1009q0 -402 -150 -732q-119 -263 -305 -442q-187 -180 -383 -268q-291 -130 -704 -130q-684 0 -1061 378q-377 379 -377 1056zM866 1460q0 -728 264 -1070q196 -256 562 -256q253 0 425 130 q174 131 259 417q86 288 86 667q0 293 -52 556q-53 267 -142 416q-91 151 -241 242q-152 92 -365 92q-239 0 -424 -133q-186 -134 -279 -418q-93 -285 -93 -643zM2296 3038h-208q-189 153 -442 334q-304 -239 -414 -334h-200q270 401 418 640l222 -2q26 0 228 2 q89 -172 396 -640z" />
<glyph unicode="&#xd5;" horiz-adv-x="3330" d="M174 1352q0 687 421 1105q422 419 1129 419q667 0 1049 -377q381 -377 381 -1009q0 -402 -150 -732q-119 -263 -305 -442q-187 -180 -383 -268q-291 -130 -704 -130q-684 0 -1061 378q-377 379 -377 1056zM866 1460q0 -728 264 -1070q196 -256 562 -256q253 0 425 130 q174 131 259 417q86 288 86 667q0 293 -52 556q-53 267 -142 416q-91 151 -241 242q-152 92 -365 92q-239 0 -424 -133q-186 -134 -279 -418q-93 -285 -93 -643zM2186 3610h178q-67 -299 -190 -428q-90 -94 -210 -94q-96 0 -339 95t-305 95q-46 0 -89 -37q-42 -36 -89 -153 h-176q65 292 190 424q92 98 202 98q59 0 122 -16q67 -17 265 -97q201 -81 277 -81q47 0 84 32t80 162z" />
<glyph unicode="&#xd6;" horiz-adv-x="3330" d="M174 1352q0 687 421 1105q422 419 1129 419q667 0 1049 -377q381 -377 381 -1009q0 -402 -150 -732q-119 -263 -305 -442q-187 -180 -383 -268q-291 -130 -704 -130q-684 0 -1061 378q-377 379 -377 1056zM866 1460q0 -728 264 -1070q196 -256 562 -256q253 0 425 130 q174 131 259 417q86 288 86 667q0 293 -52 556q-53 267 -142 416q-91 151 -241 242q-152 92 -365 92q-239 0 -424 -133q-186 -134 -279 -418q-93 -285 -93 -643zM2024 3614q108 0 184 -76t76 -184q0 -109 -76 -185q-77 -77 -184 -77q-109 0 -186 77q-76 76 -76 185 q0 108 76 184t186 76zM1304 3614q109 0 186 -77q76 -76 76 -185q0 -107 -77 -184q-76 -76 -185 -76q-108 0 -184 76t-76 184q0 109 76 185q77 77 184 77z" />
<glyph unicode="&#xd7;" d="M334 2114l260 260l774 -776l772 776l262 -262l-772 -774l764 -766l-260 -258l-766 764l-768 -764l-260 258l768 766z" />
<glyph unicode="&#xd8;" horiz-adv-x="3330" d="M2820 2450q334 -376 334 -962q0 -454 -195 -823t-529 -558t-808 -189q-579 0 -920 248l-310 -334l-176 162l306 332q-168 187 -258 428q-90 240 -90 610q0 675 422 1094q421 418 1134 418q559 0 906 -260l298 322l182 -170zM944 784l1358 1470q-98 195 -230 280 q-180 120 -410 120q-233 0 -420 -131t-281 -417q-95 -288 -95 -684q0 -366 78 -638zM2392 1988l-1350 -1454q103 -195 234 -284q173 -116 416 -116q252 0 424 129t259 417t87 668q0 326 -70 640z" />
<glyph unicode="&#xd9;" horiz-adv-x="3244" d="M22 2668v148q458 -22 750 -22t742 22v-148q-296 -48 -368 -82q-47 -19 -64 -58q-20 -51 -20 -264v-1024q0 -394 44 -538q56 -188 216 -302t452 -114q322 0 486 131q165 131 211 345q47 217 47 734q0 136 -16 676q-11 308 -30 362q-12 32 -42 50q-38 26 -260 68 q-11 3 -78 16v148q412 -22 598 -22q215 0 544 22v-148q-304 -55 -352 -90q-48 -34 -58 -100q-18 -113 -24 -1018q-5 -528 -26 -682q-35 -223 -109 -361t-220 -257q-145 -118 -321 -172q-231 -70 -496 -70q-446 0 -708 129q-261 128 -365 338q-103 207 -103 611v1236 q0 238 -24 300q-18 40 -63 60q-49 21 -343 76zM1892 3010h-176q-332 386 -598 652l32 48q154 -8 240 -8q61 0 272 8q50 -170 84 -272z" />
<glyph unicode="&#xda;" horiz-adv-x="3244" d="M22 2668v148q458 -22 750 -22t742 22v-148q-296 -48 -368 -82q-47 -19 -64 -58q-20 -51 -20 -264v-1024q0 -394 44 -538q56 -188 216 -302t452 -114q322 0 486 131q165 131 211 345q47 217 47 734q0 136 -16 676q-11 308 -30 362q-12 32 -42 50q-38 26 -260 68 q-11 3 -78 16v148q412 -22 598 -22q215 0 544 22v-148q-304 -55 -352 -90q-48 -34 -58 -100q-18 -113 -24 -1018q-5 -528 -26 -682q-35 -223 -109 -361t-220 -257q-145 -118 -321 -172q-231 -70 -496 -70q-446 0 -708 129q-261 128 -365 338q-103 207 -103 611v1236 q0 238 -24 300q-18 40 -63 60q-49 21 -343 76zM2112 3704l26 -52q-308 -300 -604 -642h-176l238 694q213 -8 266 -8q63 0 250 8z" />
<glyph unicode="&#xdb;" horiz-adv-x="3244" d="M22 2668v148q458 -22 750 -22t742 22v-148q-296 -48 -368 -82q-47 -19 -64 -58q-20 -51 -20 -264v-1024q0 -394 44 -538q56 -188 216 -302t452 -114q322 0 486 131q165 131 211 345q47 217 47 734q0 136 -16 676q-11 308 -30 362q-12 32 -42 50q-38 26 -260 68 q-11 3 -78 16v148q412 -22 598 -22q215 0 544 22v-148q-304 -55 -352 -90q-48 -34 -58 -100q-18 -113 -24 -1018q-5 -528 -26 -682q-35 -223 -109 -361t-220 -257q-145 -118 -321 -172q-231 -70 -496 -70q-446 0 -708 129q-261 128 -365 338q-103 207 -103 611v1236 q0 238 -24 300q-18 40 -63 60q-49 21 -343 76zM2252 3038h-208q-189 153 -442 334q-304 -239 -414 -334h-200q270 401 418 640l222 -2q26 0 228 2q89 -172 396 -640z" />
<glyph unicode="&#xdc;" horiz-adv-x="3244" d="M22 2668v148q458 -22 750 -22t742 22v-148q-296 -48 -368 -82q-47 -19 -64 -58q-20 -51 -20 -264v-1024q0 -394 44 -538q56 -188 216 -302t452 -114q322 0 486 131q165 131 211 345q47 217 47 734q0 136 -16 676q-11 308 -30 362q-12 32 -42 50q-38 26 -260 68 q-11 3 -78 16v148q412 -22 598 -22q215 0 544 22v-148q-304 -55 -352 -90q-48 -34 -58 -100q-18 -113 -24 -1018q-5 -528 -26 -682q-35 -223 -109 -361t-220 -257q-145 -118 -321 -172q-231 -70 -496 -70q-446 0 -708 129q-261 128 -365 338q-103 207 -103 611v1236 q0 238 -24 300q-18 40 -63 60q-49 21 -343 76zM1980 3614q108 0 184 -76t76 -184q0 -109 -76 -185q-77 -77 -184 -77q-109 0 -186 77q-76 76 -76 185q0 108 76 184t186 76zM1260 3614q109 0 186 -77q76 -76 76 -185q0 -107 -77 -184q-76 -76 -185 -76q-108 0 -184 76 t-76 184q0 109 76 185q77 77 184 77z" />
<glyph unicode="&#xdd;" horiz-adv-x="3072" d="M2 2668v148l394 -14q286 -8 320 -8q208 0 718 22v-148q-230 -53 -263 -79q-35 -27 -35 -57q0 -32 30 -82q81 -134 236 -412l326 -564l562 1026q20 38 20 56q0 28 -29 48q-30 21 -267 64v148l98 -6q321 -16 446 -16q133 0 522 22v-148q-259 -49 -341 -101 q-80 -51 -171 -185q-54 -79 -718 -1176v-720q2 -174 21 -216q20 -43 73 -68q33 -16 288 -64l66 -12v-148q-532 22 -744 22q-158 0 -768 -22v148q53 10 96 16q216 32 276 66q39 22 59 73q19 50 19 295v590l-394 626q-332 537 -409 642q-70 95 -149 144q-78 48 -282 90z M2028 3704l26 -52q-308 -300 -604 -642h-176l238 694q213 -8 266 -8q63 0 250 8z" />
<glyph unicode="&#xde;" horiz-adv-x="2772" d="M22 -22v148q333 49 392 96q39 31 50 125q10 89 10 1039q0 879 -7 1001q-8 131 -49 174t-210 73q-71 12 -186 34v148q383 -22 774 -22q393 0 738 22v-148q-67 -14 -196 -34q-195 -31 -230 -106q-20 -42 -24 -324h684q112 0 293 -25q187 -26 313 -115q128 -91 197 -240 q69 -150 69 -340q0 -239 -110 -433q-108 -191 -316 -314q-203 -120 -416 -137q-320 -26 -436 -26h-278q0 -291 34 -335q35 -45 226 -75l248 -38v-148q-311 22 -764 22q-477 0 -806 -22zM1084 800h120q314 8 342 12q114 18 223 85q108 67 173 193q64 125 64 312 q0 145 -47 266q-46 119 -140 198q-92 77 -209 97q-113 19 -266 19h-260l-2 -670q0 -30 2 -512z" />
<glyph unicode="&#xdf;" horiz-adv-x="2348" d="M1176 574h156q7 -236 94 -350q66 -84 170 -84q102 0 166 66q64 65 64 182q0 139 -76 260q-101 164 -586 678q-120 128 -120 204q0 82 110 222q292 377 292 644q0 152 -68 232t-174 80t-193 -75t-108 -230t-21 -689q0 -1330 18 -1736q-251 22 -400 22q-133 0 -444 -22v140 q207 47 254 98q34 38 42 192q8 165 8 1246q-158 -5 -290 -20v136q146 56 290 138v120q0 274 76 410q113 207 362 344q247 136 538 136q300 0 443 -123t143 -305q0 -126 -58 -246q-59 -122 -162 -212q-157 -136 -184 -172q-18 -22 -18 -48q0 -80 190 -242q272 -228 446 -498 q112 -172 112 -368q0 -322 -210 -538t-518 -216q-197 0 -440 92q55 228 96 532z" />
<glyph unicode="&#xe0;" horiz-adv-x="2048" d="M444 1242l-178 18q57 276 74 504q366 176 760 176q230 0 367 -74q136 -73 189 -202q52 -126 52 -398l-8 -680q0 -194 33 -245t87 -51q65 0 190 70l76 -116q-272 -192 -402 -252q-94 -42 -180 -42q-113 0 -196 62q-82 61 -112 184q-240 -166 -336 -207q-97 -41 -232 -41 q-207 0 -337 139q-131 140 -131 371q0 165 88 304q60 98 222 188l726 344q-4 237 -75 320q-70 82 -211 82q-142 0 -247 -93t-219 -361zM1196 1078q-331 -155 -416 -252q-86 -98 -86 -256q0 -162 64 -238t166 -76q78 0 151 52q72 52 98 147q25 93 25 399q0 18 -2 224z M1296 2154h-176q-332 386 -598 652l32 48q154 -8 240 -8q61 0 272 8q50 -170 84 -272z" />
<glyph unicode="&#xe1;" horiz-adv-x="2048" d="M444 1242l-178 18q57 276 74 504q366 176 760 176q230 0 367 -74q136 -73 189 -202q52 -126 52 -398l-8 -680q0 -194 33 -245t87 -51q65 0 190 70l76 -116q-272 -192 -402 -252q-94 -42 -180 -42q-113 0 -196 62q-82 61 -112 184q-240 -166 -336 -207q-97 -41 -232 -41 q-207 0 -337 139q-131 140 -131 371q0 165 88 304q60 98 222 188l726 344q-4 237 -75 320q-70 82 -211 82q-142 0 -247 -93t-219 -361zM1196 1078q-331 -155 -416 -252q-86 -98 -86 -256q0 -162 64 -238t166 -76q78 0 151 52q72 52 98 147q25 93 25 399q0 18 -2 224z M1516 2848l26 -52q-308 -300 -604 -642h-176l238 694q213 -8 266 -8q63 0 250 8z" />
<glyph unicode="&#xe2;" horiz-adv-x="2048" d="M444 1242l-178 18q57 276 74 504q366 176 760 176q230 0 367 -74q136 -73 189 -202q52 -126 52 -398l-8 -680q0 -194 33 -245t87 -51q65 0 190 70l76 -116q-272 -192 -402 -252q-94 -42 -180 -42q-113 0 -196 62q-82 61 -112 184q-240 -166 -336 -207q-97 -41 -232 -41 q-207 0 -337 139q-131 140 -131 371q0 165 88 304q60 98 222 188l726 344q-4 237 -75 320q-70 82 -211 82q-142 0 -247 -93t-219 -361zM1196 1078q-331 -155 -416 -252q-86 -98 -86 -256q0 -162 64 -238t166 -76q78 0 151 52q72 52 98 147q25 93 25 399q0 18 -2 224z M1656 2182h-208q-189 153 -442 334q-304 -239 -414 -334h-200q270 401 418 640l222 -2q26 0 228 2q89 -172 396 -640z" />
<glyph unicode="&#xe3;" horiz-adv-x="2048" d="M444 1242l-178 18q57 276 74 504q366 176 760 176q230 0 367 -74q136 -73 189 -202q52 -126 52 -398l-8 -680q0 -194 33 -245t87 -51q65 0 190 70l76 -116q-272 -192 -402 -252q-94 -42 -180 -42q-113 0 -196 62q-82 61 -112 184q-240 -166 -336 -207q-97 -41 -232 -41 q-207 0 -337 139q-131 140 -131 371q0 165 88 304q60 98 222 188l726 344q-4 237 -75 320q-70 82 -211 82q-142 0 -247 -93t-219 -361zM1196 1078q-331 -155 -416 -252q-86 -98 -86 -256q0 -162 64 -238t166 -76q78 0 151 52q72 52 98 147q25 93 25 399q0 18 -2 224z M1546 2754h178q-67 -299 -190 -428q-90 -94 -210 -94q-96 0 -339 95t-305 95q-46 0 -89 -37q-42 -36 -89 -153h-176q65 292 190 424q92 98 202 98q59 0 122 -16q67 -17 265 -97q201 -81 277 -81q47 0 84 32t80 162z" />
<glyph unicode="&#xe4;" horiz-adv-x="2048" d="M444 1242l-178 18q57 276 74 504q366 176 760 176q230 0 367 -74q136 -73 189 -202q52 -126 52 -398l-8 -680q0 -194 33 -245t87 -51q65 0 190 70l76 -116q-272 -192 -402 -252q-94 -42 -180 -42q-113 0 -196 62q-82 61 -112 184q-240 -166 -336 -207q-97 -41 -232 -41 q-207 0 -337 139q-131 140 -131 371q0 165 88 304q60 98 222 188l726 344q-4 237 -75 320q-70 82 -211 82q-142 0 -247 -93t-219 -361zM1196 1078q-331 -155 -416 -252q-86 -98 -86 -256q0 -162 64 -238t166 -76q78 0 151 52q72 52 98 147q25 93 25 399q0 18 -2 224z M1384 2758q108 0 184 -76t76 -184q0 -109 -76 -185q-77 -77 -184 -77q-109 0 -186 77q-76 76 -76 185q0 108 76 184t186 76zM664 2758q109 0 186 -77q76 -76 76 -185q0 -107 -77 -184q-76 -76 -185 -76q-108 0 -184 76t-76 184q0 109 76 185q77 77 184 77z" />
<glyph unicode="&#xe5;" horiz-adv-x="2048" d="M444 1242l-178 18q57 276 74 504q366 176 760 176q230 0 367 -74q136 -73 189 -202q52 -126 52 -398l-8 -680q0 -194 33 -245t87 -51q65 0 190 70l76 -116q-272 -192 -402 -252q-94 -42 -180 -42q-113 0 -196 62q-82 61 -112 184q-240 -166 -336 -207q-97 -41 -232 -41 q-207 0 -337 139q-131 140 -131 371q0 165 88 304q60 98 222 188l726 344q-4 237 -75 320q-70 82 -211 82q-142 0 -247 -93t-219 -361zM1196 1078q-331 -155 -416 -252q-86 -98 -86 -256q0 -162 64 -238t166 -76q78 0 151 52q72 52 98 147q25 93 25 399q0 18 -2 224z M1026 2956q178 0 304 -126t126 -306q0 -178 -126 -304t-304 -126q-180 0 -306 126t-126 304q0 180 126 306t306 126zM1026 2730q-86 0 -146 -61t-60 -145q0 -86 60 -147t146 -61t146 61t60 147q0 84 -60 145t-146 61z" />
<glyph unicode="&#xe6;" horiz-adv-x="2900" d="M412 1244l-180 18q36 169 78 506q193 85 383 129q187 43 373 43t316 -66q80 -42 156 -144q224 230 568 230q332 0 497 -171t183 -535q-99 -59 -180 -148q-190 8 -340 8q-354 0 -618 -8q23 -445 163 -615q141 -171 349 -171q252 0 536 200l104 -150q-363 -285 -531 -362 q-169 -78 -337 -78q-193 0 -339 86q-145 85 -277 270q-220 -207 -357 -271q-141 -65 -313 -65q-250 0 -386 135t-136 365q0 132 51 238q51 107 223 252l778 356q0 140 -16 194q-29 98 -95 149q-68 53 -183 53q-141 0 -257 -95q-115 -94 -213 -353zM1660 1304q480 6 598 14 q-1 214 -68 321q-66 107 -200 107q-130 0 -216 -93t-114 -349zM1240 446q-42 113 -54 176q-20 128 -20 296q0 58 6 168q-333 -155 -412 -248q-104 -121 -104 -276q0 -151 67 -224q68 -74 185 -74q91 0 167 40q77 41 165 142z" />
<glyph unicode="&#xe7;" horiz-adv-x="1836" d="M1666 1234l-180 10q-20 285 -117 394q-98 110 -245 110q-184 0 -294 -140q-146 -188 -146 -542q0 -363 160 -550q161 -188 382 -188q100 0 197 31q100 32 265 121l94 -152q-336 -261 -489 -329q-155 -69 -331 -69q-356 0 -590 249t-234 675q0 455 274 780 q275 326 762 326q282 0 608 -150q-40 -160 -78 -378zM920 22h162q-60 -107 -136 -208q86 0 143 -61t57 -157q0 -154 -124 -248q-163 -124 -496 -124q-53 0 -128 4v148h12q229 0 318 58q62 41 62 106q0 35 -20 57q-20 21 -52 21q-18 0 -68 -8l-28 90q86 66 130 113 q50 54 168 209z" />
<glyph unicode="&#xe8;" horiz-adv-x="1922" d="M1716 520l104 -152q-314 -266 -578 -386q-113 -52 -292 -52q-372 0 -568 220q-248 277 -248 736q0 477 284 776q283 298 704 298q384 0 562 -232q118 -151 136 -474q-100 -66 -186 -150q-224 8 -428 8q-267 0 -528 -8q-2 -58 -2 -74q0 -282 129 -496t387 -214 q126 0 241 42q113 41 283 158zM682 1310q100 -4 184 -4q180 0 420 16q-12 255 -85 338q-73 84 -201 84q-124 0 -212 -100t-106 -334zM1232 2154h-176q-332 386 -598 652l32 48q154 -8 240 -8q61 0 272 8q50 -170 84 -272z" />
<glyph unicode="&#xe9;" horiz-adv-x="1922" d="M1716 520l104 -152q-314 -266 -578 -386q-113 -52 -292 -52q-372 0 -568 220q-248 277 -248 736q0 477 284 776q283 298 704 298q384 0 562 -232q118 -151 136 -474q-100 -66 -186 -150q-224 8 -428 8q-267 0 -528 -8q-2 -58 -2 -74q0 -282 129 -496t387 -214 q126 0 241 42q113 41 283 158zM682 1310q100 -4 184 -4q180 0 420 16q-12 255 -85 338q-73 84 -201 84q-124 0 -212 -100t-106 -334zM1612 2848l26 -52q-308 -300 -604 -642h-176l238 694q213 -8 266 -8q63 0 250 8z" />
<glyph unicode="&#xea;" horiz-adv-x="1922" d="M1716 520l104 -152q-314 -266 -578 -386q-113 -52 -292 -52q-372 0 -568 220q-248 277 -248 736q0 477 284 776q283 298 704 298q384 0 562 -232q118 -151 136 -474q-100 -66 -186 -150q-224 8 -428 8q-267 0 -528 -8q-2 -58 -2 -74q0 -282 129 -496t387 -214 q126 0 241 42q113 41 283 158zM682 1310q100 -4 184 -4q180 0 420 16q-12 255 -85 338q-73 84 -201 84q-124 0 -212 -100t-106 -334zM1672 2182h-208q-189 153 -442 334q-304 -239 -414 -334h-200q270 401 418 640l222 -2q26 0 228 2q89 -172 396 -640z" />
<glyph unicode="&#xeb;" horiz-adv-x="1922" d="M1716 520l104 -152q-314 -266 -578 -386q-113 -52 -292 -52q-372 0 -568 220q-248 277 -248 736q0 477 284 776q283 298 704 298q384 0 562 -232q118 -151 136 -474q-100 -66 -186 -150q-224 8 -428 8q-267 0 -528 -8q-2 -58 -2 -74q0 -282 129 -496t387 -214 q126 0 241 42q113 41 283 158zM682 1310q100 -4 184 -4q180 0 420 16q-12 255 -85 338q-73 84 -201 84q-124 0 -212 -100t-106 -334zM1420 2758q108 0 184 -76t76 -184q0 -109 -76 -185q-77 -77 -184 -77q-109 0 -186 77q-76 76 -76 185q0 108 76 184t186 76zM700 2758 q109 0 186 -77q76 -76 76 -185q0 -107 -77 -184q-76 -76 -185 -76q-108 0 -184 76t-76 184q0 109 76 185q77 77 184 77z" />
<glyph unicode="&#xec;" horiz-adv-x="1282" d="M82 1546v144q453 79 784 278l102 -54q-28 -242 -36 -432q-14 -292 -14 -892q0 -256 18 -326q12 -46 47 -69t239 -77v-140q-271 22 -508 22q-230 0 -642 -22v140l52 12q177 41 208 69q32 29 40 103q18 190 18 784q0 344 -18 400q-24 74 -114 74q-75 0 -176 -14zM910 2154 h-176q-332 386 -598 652l32 48q154 -8 240 -8q61 0 272 8q50 -170 84 -272z" />
<glyph unicode="&#xed;" horiz-adv-x="1282" d="M82 1546v144q453 79 784 278l102 -54q-28 -242 -36 -432q-14 -292 -14 -892q0 -256 18 -326q12 -46 47 -69t239 -77v-140q-271 22 -508 22q-230 0 -642 -22v140l52 12q177 41 208 69q32 29 40 103q18 190 18 784q0 344 -18 400q-24 74 -114 74q-75 0 -176 -14zM1130 2848 l26 -52q-308 -300 -604 -642h-176l238 694q213 -8 266 -8q63 0 250 8z" />
<glyph unicode="&#xee;" horiz-adv-x="1282" d="M82 1546v144q453 79 784 278l102 -54q-28 -242 -36 -432q-14 -292 -14 -892q0 -256 18 -326q12 -46 47 -69t239 -77v-140q-271 22 -508 22q-230 0 -642 -22v140l52 12q177 41 208 69q32 29 40 103q18 190 18 784q0 344 -18 400q-24 74 -114 74q-75 0 -176 -14zM1270 2182 h-208q-189 153 -442 334q-304 -239 -414 -334h-200q270 401 418 640l222 -2q26 0 228 2q89 -172 396 -640z" />
<glyph unicode="&#xef;" horiz-adv-x="1282" d="M82 1546v144q453 79 784 278l102 -54q-28 -242 -36 -432q-14 -292 -14 -892q0 -256 18 -326q12 -46 47 -69t239 -77v-140q-271 22 -508 22q-230 0 -642 -22v140l52 12q177 41 208 69q32 29 40 103q18 190 18 784q0 344 -18 400q-24 74 -114 74q-75 0 -176 -14zM998 2758 q108 0 184 -76t76 -184q0 -109 -76 -185q-77 -77 -184 -77q-109 0 -186 77q-76 76 -76 185q0 108 76 184t186 76zM278 2758q109 0 186 -77q76 -76 76 -185q0 -107 -77 -184q-76 -76 -185 -76q-108 0 -184 76t-76 184q0 109 76 185q77 77 184 77z" />
<glyph unicode="&#xf0;" horiz-adv-x="2260" d="M596 2104l-92 184l376 204q-89 95 -284 246l102 180q229 -120 460 -286l518 286l98 -180l-436 -246q360 -277 570 -646q208 -367 208 -786q0 -477 -214 -770q-260 -360 -794 -360q-494 0 -728 281t-234 697q0 285 115 521q116 239 311 356q197 119 418 119q136 0 334 -62 q-82 174 -144 275q-60 97 -156 213zM744 1058q0 -558 150 -784q98 -150 268 -150q150 0 253 148t103 596q0 408 -107 627q-106 217 -303 217q-156 0 -260 -140t-104 -514z" />
<glyph unicode="&#xf1;" horiz-adv-x="2302" d="M48 1530v144q256 54 439 118q170 60 347 158l104 -60q-27 -144 -38 -332q223 254 334 317q113 65 264 65q150 0 259 -58t162 -147q52 -88 69 -239q10 -90 10 -452l-2 -356q0 -339 8 -405q7 -61 39 -88q32 -28 177 -59l76 -18v-140q-327 22 -518 22q-195 0 -548 -22v140 q153 37 188 69t42 103q12 100 12 662q0 399 -34 480q-55 130 -210 130q-111 0 -205 -80t-119 -204q-26 -127 -26 -546q0 -381 16 -470q8 -51 36 -73q30 -24 188 -71v-140q-298 22 -508 22q-198 0 -562 -22v140q220 58 249 84t39 120q18 216 18 560q0 526 -12 578 q-24 88 -122 88q-62 0 -172 -18zM1674 2754h178q-67 -299 -190 -428q-90 -94 -210 -94q-96 0 -339 95t-305 95q-46 0 -89 -37q-42 -36 -89 -153h-176q65 292 190 424q92 98 202 98q59 0 122 -16q67 -17 265 -97q201 -81 277 -81q47 0 84 32t80 162z" />
<glyph unicode="&#xf2;" horiz-adv-x="2260" d="M146 970q0 444 275 717t731 273q453 0 707 -253q255 -253 255 -697q0 -513 -271 -796q-272 -284 -731 -284q-464 0 -715 264q-251 265 -251 776zM744 1076q0 -562 158 -810q90 -142 258 -142q154 0 238 122q120 174 120 602q0 546 -150 776q-92 144 -258 144 q-156 0 -244 -124q-122 -170 -122 -568zM1402 2154h-176q-332 386 -598 652l32 48q154 -8 240 -8q61 0 272 8q50 -170 84 -272z" />
<glyph unicode="&#xf3;" horiz-adv-x="2260" d="M146 970q0 444 275 717t731 273q453 0 707 -253q255 -253 255 -697q0 -513 -271 -796q-272 -284 -731 -284q-464 0 -715 264q-251 265 -251 776zM744 1076q0 -562 158 -810q90 -142 258 -142q154 0 238 122q120 174 120 602q0 546 -150 776q-92 144 -258 144 q-156 0 -244 -124q-122 -170 -122 -568zM1622 2848l26 -52q-308 -300 -604 -642h-176l238 694q213 -8 266 -8q63 0 250 8z" />
<glyph unicode="&#xf4;" horiz-adv-x="2260" d="M146 970q0 444 275 717t731 273q453 0 707 -253q255 -253 255 -697q0 -513 -271 -796q-272 -284 -731 -284q-464 0 -715 264q-251 265 -251 776zM744 1076q0 -562 158 -810q90 -142 258 -142q154 0 238 122q120 174 120 602q0 546 -150 776q-92 144 -258 144 q-156 0 -244 -124q-122 -170 -122 -568zM1762 2182h-208q-189 153 -442 334q-304 -239 -414 -334h-200q270 401 418 640l222 -2q26 0 228 2q89 -172 396 -640z" />
<glyph unicode="&#xf5;" horiz-adv-x="2260" d="M146 970q0 444 275 717t731 273q453 0 707 -253q255 -253 255 -697q0 -513 -271 -796q-272 -284 -731 -284q-464 0 -715 264q-251 265 -251 776zM744 1076q0 -562 158 -810q90 -142 258 -142q154 0 238 122q120 174 120 602q0 546 -150 776q-92 144 -258 144 q-156 0 -244 -124q-122 -170 -122 -568zM1652 2754h178q-67 -299 -190 -428q-90 -94 -210 -94q-96 0 -339 95t-305 95q-46 0 -89 -37q-42 -36 -89 -153h-176q65 292 190 424q92 98 202 98q59 0 122 -16q67 -17 265 -97q201 -81 277 -81q47 0 84 32t80 162z" />
<glyph unicode="&#xf6;" horiz-adv-x="2260" d="M146 970q0 444 275 717t731 273q453 0 707 -253q255 -253 255 -697q0 -513 -271 -796q-272 -284 -731 -284q-464 0 -715 264q-251 265 -251 776zM744 1076q0 -562 158 -810q90 -142 258 -142q154 0 238 122q120 174 120 602q0 546 -150 776q-92 144 -258 144 q-156 0 -244 -124q-122 -170 -122 -568zM1490 2758q108 0 184 -76t76 -184q0 -109 -76 -185q-77 -77 -184 -77q-109 0 -186 77q-76 76 -76 185q0 108 76 184t186 76zM770 2758q109 0 186 -77q76 -76 76 -185q0 -107 -77 -184q-76 -76 -185 -76q-108 0 -184 76t-76 184 q0 109 76 185q77 77 184 77z" />
<glyph unicode="&#xf7;" d="M1582 2180q0 -92 -66 -158t-158 -66q-94 0 -159 66q-65 67 -65 158q0 94 65 159t159 65q91 0 158 -65q66 -65 66 -159zM260 1518h2210v-352h-2210v352zM1588 520q0 -94 -67 -160t-161 -66q-92 0 -159 66t-67 160t67 160t159 66q94 0 161 -66t67 -160z" />
<glyph unicode="&#xf8;" horiz-adv-x="2260" d="M1908 1654q206 -259 206 -644q0 -514 -271 -797t-737 -283q-349 0 -572 146l-206 -238l-174 150l212 244q-220 281 -220 700q0 475 272 752q272 276 726 276q188 0 322 -35q131 -34 270 -119l196 226l172 -154zM770 696l672 772q-58 168 -141 234t-191 66 q-155 0 -244 -122q-122 -173 -122 -558q0 -160 26 -392zM1500 1184l-670 -768q60 -163 143 -228q82 -64 187 -64q154 0 238 122q120 174 120 606q0 176 -18 332z" />
<glyph unicode="&#xf9;" horiz-adv-x="2260" d="M2242 288v-148q-284 -37 -459 -83q-171 -45 -339 -117l-94 60q24 138 36 288q-252 -233 -354 -286q-100 -52 -232 -52q-152 0 -261 55q-110 56 -163 140q-53 85 -70 223q-8 94 -8 456l2 398q0 327 -44 382t-276 74v134q456 34 786 132l92 -58q-15 -92 -26 -296 q-16 -343 -16 -622q0 -415 55 -534q55 -120 207 -120q120 0 205 76q86 77 111 232q18 98 18 630q0 311 -37 355q-38 46 -279 71v134q354 35 498 61q146 26 294 71l94 -56q-31 -184 -38 -340q-16 -257 -16 -802q0 -350 20 -398q25 -64 126 -64h22q117 4 146 4zM1402 2154 h-176q-332 386 -598 652l32 48q154 -8 240 -8q61 0 272 8q50 -170 84 -272z" />
<glyph unicode="&#xfa;" horiz-adv-x="2260" d="M2242 288v-148q-284 -37 -459 -83q-171 -45 -339 -117l-94 60q24 138 36 288q-252 -233 -354 -286q-100 -52 -232 -52q-152 0 -261 55q-110 56 -163 140q-53 85 -70 223q-8 94 -8 456l2 398q0 327 -44 382t-276 74v134q456 34 786 132l92 -58q-15 -92 -26 -296 q-16 -343 -16 -622q0 -415 55 -534q55 -120 207 -120q120 0 205 76q86 77 111 232q18 98 18 630q0 311 -37 355q-38 46 -279 71v134q354 35 498 61q146 26 294 71l94 -56q-31 -184 -38 -340q-16 -257 -16 -802q0 -350 20 -398q25 -64 126 -64h22q117 4 146 4zM1622 2848 l26 -52q-308 -300 -604 -642h-176l238 694q213 -8 266 -8q63 0 250 8z" />
<glyph unicode="&#xfb;" horiz-adv-x="2260" d="M2242 288v-148q-284 -37 -459 -83q-171 -45 -339 -117l-94 60q24 138 36 288q-252 -233 -354 -286q-100 -52 -232 -52q-152 0 -261 55q-110 56 -163 140q-53 85 -70 223q-8 94 -8 456l2 398q0 327 -44 382t-276 74v134q456 34 786 132l92 -58q-15 -92 -26 -296 q-16 -343 -16 -622q0 -415 55 -534q55 -120 207 -120q120 0 205 76q86 77 111 232q18 98 18 630q0 311 -37 355q-38 46 -279 71v134q354 35 498 61q146 26 294 71l94 -56q-31 -184 -38 -340q-16 -257 -16 -802q0 -350 20 -398q25 -64 126 -64h22q117 4 146 4zM1762 2182 h-208q-189 153 -442 334q-304 -239 -414 -334h-200q270 401 418 640l222 -2q26 0 228 2q89 -172 396 -640z" />
<glyph unicode="&#xfc;" horiz-adv-x="2260" d="M2242 288v-148q-284 -37 -459 -83q-171 -45 -339 -117l-94 60q24 138 36 288q-252 -233 -354 -286q-100 -52 -232 -52q-152 0 -261 55q-110 56 -163 140q-53 85 -70 223q-8 94 -8 456l2 398q0 327 -44 382t-276 74v134q456 34 786 132l92 -58q-15 -92 -26 -296 q-16 -343 -16 -622q0 -415 55 -534q55 -120 207 -120q120 0 205 76q86 77 111 232q18 98 18 630q0 311 -37 355q-38 46 -279 71v134q354 35 498 61q146 26 294 71l94 -56q-31 -184 -38 -340q-16 -257 -16 -802q0 -350 20 -398q25 -64 126 -64h22q117 4 146 4zM1490 2758 q108 0 184 -76t76 -184q0 -109 -76 -185q-77 -77 -184 -77q-109 0 -186 77q-76 76 -76 185q0 108 76 184t186 76zM770 2758q109 0 186 -77q76 -76 76 -185q0 -107 -77 -184q-76 -76 -185 -76q-108 0 -184 76t-76 184q0 109 76 185q77 77 184 77z" />
<glyph unicode="&#xfd;" horiz-adv-x="2048" d="M2 1752v140q356 -22 562 -22q214 0 544 22v-140q-37 -7 -48 -8q-120 -19 -150 -43q-28 -22 -28 -59q0 -30 42 -132l300 -748l238 704q38 116 38 170q0 33 -26 59q-25 25 -136 57v140q223 -22 374 -22q162 0 328 22v-140q-151 -48 -194 -84q-44 -36 -93 -145 q-44 -98 -305 -807q-324 -885 -418 -1080q-136 -280 -294 -388t-322 -108q-69 0 -182 22q-43 162 -70 231q-28 71 -96 211l112 72q102 -95 172 -126q72 -32 144 -32q132 0 239 96t231 444l-570 1290q-106 244 -160 293q-54 50 -232 111zM1516 2848l26 -52 q-308 -300 -604 -642h-176l238 694q213 -8 266 -8q63 0 250 8z" />
<glyph unicode="&#xfe;" horiz-adv-x="2220" d="M858 1560q236 258 326 308q128 72 280 72q256 0 440 -220t184 -636q0 -496 -292 -815t-660 -319q-76 0 -148 18q-74 18 -138 52l-2 -150q0 -392 18 -456q11 -41 43 -60q36 -21 297 -94v-140q-389 22 -614 22q-219 0 -596 -22v140q202 53 254 88q38 26 54 66q15 38 20 442 l6 1304l-6 1200q0 81 -32 119q-31 37 -88 37q-81 0 -180 -16v144q311 72 467 127q149 53 321 147l100 -62q-54 -478 -54 -1296zM850 286q82 -63 155 -94q76 -32 143 -32q166 0 250 118q134 191 134 580q0 378 -130 562q-91 130 -232 130q-116 0 -206 -93t-108 -303 q-6 -80 -6 -868z" />
<glyph unicode="&#xff;" horiz-adv-x="2048" d="M2 1752v140q356 -22 562 -22q214 0 544 22v-140q-37 -7 -48 -8q-120 -19 -150 -43q-28 -22 -28 -59q0 -30 42 -132l300 -748l238 704q38 116 38 170q0 33 -26 59q-25 25 -136 57v140q223 -22 374 -22q162 0 328 22v-140q-151 -48 -194 -84q-44 -36 -93 -145 q-44 -98 -305 -807q-324 -885 -418 -1080q-136 -280 -294 -388t-322 -108q-69 0 -182 22q-43 162 -70 231q-28 71 -96 211l112 72q102 -95 172 -126q72 -32 144 -32q132 0 239 96t231 444l-570 1290q-106 244 -160 293q-54 50 -232 111zM1384 2758q108 0 184 -76t76 -184 q0 -109 -76 -185q-77 -77 -184 -77q-109 0 -186 77q-76 76 -76 185q0 108 76 184t186 76zM664 2758q109 0 186 -77q76 -76 76 -185q0 -107 -77 -184q-76 -76 -185 -76q-108 0 -184 76t-76 184q0 109 76 185q77 77 184 77z" />
<glyph unicode="&#x131;" horiz-adv-x="1282" d="M82 1546v144q453 79 784 278l102 -54q-28 -242 -36 -432q-14 -292 -14 -892q0 -256 18 -326q12 -46 47 -69t239 -77v-140q-271 22 -508 22q-230 0 -642 -22v140l52 12q177 41 208 69q32 29 40 103q18 190 18 784q0 344 -18 400q-24 74 -114 74q-75 0 -176 -14z" />
<glyph unicode="&#x152;" horiz-adv-x="4482" d="M4220 2090h-166q-92 278 -132 354t-92 101q-51 25 -212 25h-758q-13 -174 -14 -994h344q248 0 308 36q82 49 136 290q4 26 18 78h166q-20 -300 -20 -556q0 -239 20 -490h-166l-18 80q-48 250 -102 294q-55 44 -350 44h-336v-1120h784q178 0 251 52t299 404q15 25 54 82 h176q-159 -444 -260 -792q-522 22 -1156 22l-1230 -22q-406 0 -670 72q-179 49 -361 166q-186 119 -306 290q-121 171 -190 405q-69 233 -69 493q0 712 522 1110q397 302 1042 302q21 0 304 -8q462 -14 720 -14q443 0 1418 22q5 -393 46 -726zM2236 1956q0 433 -10 474 q-18 71 -82 108q-113 62 -330 62q-450 0 -716 -290t-266 -886q0 -377 127 -664q128 -288 362 -427q235 -139 597 -139q258 0 294 130q24 86 24 1010v112v510z" />
<glyph unicode="&#x153;" horiz-adv-x="3244" d="M3028 522l110 -156q-393 -295 -549 -365q-159 -71 -329 -71q-184 0 -318 68q-100 49 -204 182q-121 -127 -242 -180q-162 -70 -396 -70q-450 0 -702 264t-252 744q0 477 271 749q271 273 735 273q237 0 390 -76q113 -55 238 -218q121 149 271 222q149 72 377 72 q261 0 421 -104t212 -240q54 -139 61 -358q-95 -61 -176 -146q-194 6 -530 6q-256 0 -418 -6q0 -274 56 -447q55 -169 166 -256q109 -85 276 -85q120 0 231 39q110 39 301 159zM740 1056q0 -530 164 -784q92 -144 258 -144q179 0 264 166q86 167 86 544q0 550 -146 780 q-92 140 -256 140q-160 0 -246 -122q-124 -173 -124 -580zM2596 1326q-7 237 -83 329q-75 91 -199 91q-126 0 -212 -96q-86 -97 -110 -336q402 0 604 12z" />
<glyph unicode="&#x178;" horiz-adv-x="3072" d="M2 2668v148l394 -14q286 -8 320 -8q208 0 718 22v-148q-230 -53 -263 -79q-35 -27 -35 -57q0 -32 30 -82q81 -134 236 -412l326 -564l562 1026q20 38 20 56q0 28 -29 48q-30 21 -267 64v148l98 -6q321 -16 446 -16q133 0 522 22v-148q-259 -49 -341 -101 q-80 -51 -171 -185q-54 -79 -718 -1176v-720q2 -174 21 -216q20 -43 73 -68q33 -16 288 -64l66 -12v-148q-532 22 -744 22q-158 0 -768 -22v148q53 10 96 16q216 32 276 66q39 22 59 73q19 50 19 295v590l-394 626q-332 537 -409 642q-70 95 -149 144q-78 48 -282 90z M1896 3614q108 0 184 -76t76 -184q0 -109 -76 -185q-77 -77 -184 -77q-109 0 -186 77q-76 76 -76 185q0 108 76 184t186 76zM1176 3614q109 0 186 -77q76 -76 76 -185q0 -107 -77 -184q-76 -76 -185 -76q-108 0 -184 76t-76 184q0 109 76 185q77 77 184 77z" />
<glyph unicode="&#x2c6;" horiz-adv-x="1364" d="M1314 2182h-208q-189 153 -442 334q-304 -239 -414 -334h-200q270 401 418 640l222 -2q26 0 228 2q89 -172 396 -640z" />
<glyph unicode="&#x2da;" horiz-adv-x="1364" d="M684 2956q178 0 304 -126t126 -306q0 -178 -126 -304t-304 -126q-180 0 -306 126t-126 304q0 180 126 306t306 126zM684 2730q-86 0 -146 -61t-60 -145q0 -86 60 -147t146 -61t146 61t60 147q0 84 -60 145t-146 61z" />
<glyph unicode="&#x2dc;" horiz-adv-x="1364" d="M1204 2754h178q-67 -299 -190 -428q-90 -94 -210 -94q-96 0 -339 95t-305 95q-46 0 -89 -37q-42 -36 -89 -153h-176q65 292 190 424q92 98 202 98q59 0 122 -16q67 -17 265 -97q201 -81 277 -81q47 0 84 32t80 162z" />
<glyph unicode="&#x2000;" horiz-adv-x="1854" />
<glyph unicode="&#x2001;" horiz-adv-x="3710" />
<glyph unicode="&#x2002;" horiz-adv-x="1854" />
<glyph unicode="&#x2003;" horiz-adv-x="3710" />
<glyph unicode="&#x2004;" horiz-adv-x="1236" />
<glyph unicode="&#x2005;" horiz-adv-x="926" />
<glyph unicode="&#x2006;" horiz-adv-x="618" />
<glyph unicode="&#x2007;" horiz-adv-x="618" />
<glyph unicode="&#x2008;" horiz-adv-x="462" />
<glyph unicode="&#x2009;" horiz-adv-x="742" />
<glyph unicode="&#x200a;" horiz-adv-x="206" />
<glyph unicode="&#x2010;" horiz-adv-x="1450" d="M158 702l-50 56q82 218 124 414q205 -14 436 -14q361 0 616 14l46 -60q-76 -194 -130 -410q-308 12 -662 12q-224 0 -380 -12z" />
<glyph unicode="&#x2011;" horiz-adv-x="1450" d="M158 702l-50 56q82 218 124 414q205 -14 436 -14q361 0 616 14l46 -60q-76 -194 -130 -410q-308 12 -662 12q-224 0 -380 -12z" />
<glyph unicode="&#x2013;" horiz-adv-x="2048" d="M-24 1154h2096v-260h-2096v260z" />
<glyph unicode="&#x2014;" horiz-adv-x="4096" d="M-24 1154h4144v-260h-4144v260z" />
<glyph unicode="&#x2018;" horiz-adv-x="1410" d="M1020 1860l86 -106q-36 -48 -120 -150q-130 -161 -242 -318q-185 54 -298 198q-112 143 -112 330q0 229 155 504q154 274 473 558l144 -146q-222 -294 -294 -444q-50 -102 -50 -214q0 -104 55 -165t125 -61q28 0 78 14z" />
<glyph unicode="&#x2019;" horiz-adv-x="1410" d="M388 2302l-86 106l120 150q130 161 242 318q188 -54 299 -198t111 -330q0 -230 -154 -504q-155 -275 -472 -558l-146 146q223 296 296 444q48 100 48 214q0 104 -55 165t-125 61q-27 0 -78 -14z" />
<glyph unicode="&#x201a;" horiz-adv-x="1410" d="M388 86l-86 106l120 150q130 161 242 318q188 -54 299 -198t111 -330q0 -230 -154 -504q-155 -275 -472 -558l-146 146q223 296 296 444q48 100 48 214q0 104 -55 165t-125 61q-27 0 -78 -14z" />
<glyph unicode="&#x201c;" horiz-adv-x="2474" d="M2084 1860l86 -106q-36 -48 -120 -150q-130 -161 -242 -318q-185 54 -298 198q-112 143 -112 330q0 229 155 504q155 274 471 558l146 -146q-222 -294 -294 -444q-50 -102 -50 -214q0 -104 55 -165t125 -61q28 0 78 14zM1020 1860l86 -106q-36 -48 -120 -150 q-130 -161 -242 -318q-185 54 -298 198q-112 143 -112 330q0 229 155 504q154 274 473 558l144 -146q-222 -294 -294 -444q-50 -102 -50 -214q0 -104 55 -165t125 -61q28 0 78 14z" />
<glyph unicode="&#x201d;" horiz-adv-x="2474" d="M390 2302l-86 106l120 150q130 161 242 318q188 -54 299 -198t111 -330q0 -230 -154 -504q-155 -275 -472 -558l-146 146q223 296 296 444q48 100 48 214q0 104 -55 165t-125 61q-27 0 -78 -14zM1454 2302l-86 106l120 150q130 161 242 318q188 -54 299 -198t111 -330 q0 -230 -154 -504q-155 -275 -472 -558l-146 146q223 296 296 444q48 100 48 214q0 104 -55 165t-125 61q-27 0 -78 -14z" />
<glyph unicode="&#x201e;" horiz-adv-x="2474" d="M390 86l-86 106l120 150q130 161 242 318q188 -54 299 -198t111 -330q0 -230 -154 -504q-155 -275 -472 -558l-146 146q223 296 296 444q48 100 48 214q0 104 -55 165t-125 61q-27 0 -78 -14zM1454 86l-86 106l120 150q130 161 242 318q188 -54 299 -198t111 -330 q0 -230 -154 -504q-155 -275 -472 -558l-146 146q223 296 296 444q48 100 48 214q0 104 -55 165t-125 61q-27 0 -78 -14z" />
<glyph unicode="&#x2022;" horiz-adv-x="1450" d="M1298 1352q0 -236 -168 -404t-404 -168q-238 0 -405 168q-167 169 -167 404t167 404q167 168 405 168q236 0 404 -168t168 -404z" />
<glyph unicode="&#x2026;" horiz-adv-x="4096" d="M2048 652q150 0 254 -105q104 -106 104 -255q0 -148 -105 -254t-253 -106q-150 0 -255 106t-105 254q0 149 104 255q104 105 256 105zM3412 652q150 0 255 -105t105 -255q0 -148 -105 -254t-255 -106q-148 0 -254 106t-106 254q0 150 105 255t255 105zM682 652 q150 0 255 -105t105 -255q0 -148 -106 -254t-254 -106q-150 0 -255 106t-105 254q0 150 105 255t255 105z" />
<glyph unicode="&#x202f;" horiz-adv-x="742" />
<glyph unicode="&#x2039;" horiz-adv-x="1110" d="M802 1668h202l-356 -748l356 -742h-202l-384 422l-306 320q192 197 690 748z" />
<glyph unicode="&#x203a;" horiz-adv-x="1110" d="M310 178h-204l356 746l-356 744h204l382 -422l306 -322q-191 -196 -688 -746z" />
<glyph unicode="&#x205f;" horiz-adv-x="926" />
<glyph unicode="&#x20ac;" horiz-adv-x="2088" d="M192 1082h-192l24 220h156v30q0 89 4 154h-184l24 222h184q180 1152 1070 1152q254 0 562 -144q-7 -145 -7 -298q0 -222 15 -464h-206q-31 339 -110 504q-78 164 -242 164q-418 0 -492 -914h902l-24 -222h-886q0 -67 4 -184h856l-24 -220h-810q112 -792 576 -792 q172 0 374 136l106 -176q-383 -320 -750 -320q-810 0 -930 1152z" />
<glyph unicode="&#x2122;" horiz-adv-x="4096" d="M-6 2712h1554v-452h-70q-8 176 -98 262q-91 86 -290 86h-76v-1174q0 -170 36 -212q44 -56 170 -56v-68h-908v68q143 11 174 49q32 40 32 225v1168h-70q-192 0 -283 -82q-92 -83 -105 -266h-66v452zM1768 2712h736l462 -990l458 990h694v-76q-96 0 -133 -21t-57 -71 q-12 -34 -12 -176v-944q0 -152 30 -192q48 -59 172 -66v-68h-922v68q147 5 187 48q41 44 41 210v1012l-640 -1338h-48l-636 1338v-1004q0 -136 12 -168q17 -45 62 -70q48 -27 156 -28v-68h-562v68q115 6 150 25q37 20 53 61q17 43 17 184v936q0 140 -19 182q-20 44 -61 66 q-33 16 -140 16v76z" />
<glyph unicode="&#x2215;" horiz-adv-x="472" d="M890 2862h300l-1610 -3024h-300z" />
<glyph horiz-adv-x="1408" d="M432 1332v110q83 18 119 25q83 16 101 29q21 16 32 46q10 29 10 164q-403 -1 -652 -14q2 122 2 138q0 14 -2 132l496 580q62 74 156 198q104 35 152 57t142 85l62 -44q-30 -352 -30 -908q117 6 234 32l32 -46q-57 -98 -98 -216q-84 6 -168 6q0 -143 10 -166 q12 -34 52 -56q29 -17 172 -42v-110q-274 14 -414 14q-133 0 -408 -14zM694 1930v540l-444 -540h444z" />
</font>
</defs>
</svg>
